<svg viewBox="0 0 163 38" xmlns="http://www.w3.org/2000/svg" fill="none"><path fill="#000" d="M85.7 22.4c-4.1 0-7.3 3.1-7.3 7.3 0 4.2 3.3 7.3 7.3 7.3s7.3-3.2 7.3-7.3c0-4.2-3.2-7.3-7.3-7.3Zm0 3c2.5 0 4.3 1.8 4.3 4.3 0 2.6-2 4.4-4.3 4.4a4.2 4.2 0 0 1-4.3-4.4c-.1-2.5 1.8-4.4 4.3-4.4Zm61 7v-6.8h3.5v-3h-3.5v-3.8l-3 .9v3h-2.5v3h2.5v6.6c0 3.7 1.9 5 6.5 4.4V34c-2.3.1-3.5.1-3.5-1.7Zm15.6 1.5h-6.9l7-8.3v-2.8h-10.7v2.8h6.8l-6.8 8.3v2.8h10.6V34Zm-60.8-11.4v3.3c-2-.2-4.3.7-4.3 4v7h-3v-14h3V25c.8-1.9 2.5-2.6 4.3-2.6Zm7.3-.1c-4.1 0-7.4 3.1-7.4 7.3 0 4.2 3.3 7.3 7.4 7.3 4 0 7.3-3.2 7.3-7.3 0-4.2-3.2-7.3-7.3-7.3Zm0 3c2.4 0 4.3 1.8 4.3 4.3 0 2.6-2 4.4-4.3 4.4a4.2 4.2 0 0 1-4.4-4.4c0-2.5 2-4.4 4.4-4.4Zm27.2-2.6-4.4 14h-3l-2.9-9.5-2.9 9.4h-3l-4.3-14h3.1l2.7 9.7 3-9.6h2.8l3 9.6 2.7-9.6h3.2Zm4 0h-3v14h3v-14ZM42 .9v5.8a7.7 7.7 0 0 0-4.2-1.5 7.4 7.4 0 0 0-7.4 8.1A7.5 7.5 0 0 0 37 20c2 .2 3.7-.4 5-1.4v1.1h3.2V0L42 1Zm0 11.7c0 2.7-2.5 4.8-5.2 4.1-1.7-.3-3-1.6-3.4-3.3a4.4 4.4 0 0 1 4.4-5.2c2.3 0 4.2 2 4.2 4.4Zm-29.7-7v1a7.3 7.3 0 0 0-4.2-1.4 7.4 7.4 0 0 0-7.4 8.1A7.5 7.5 0 0 0 7.3 20c2 .2 3.7-.4 5-1.4v1.1h3.2v-14h-3.2Zm0 7c0 2.7-2.5 4.8-5.2 4.1-1.7-.3-3-1.6-3.4-3.3a4.4 4.4 0 0 1 4.4-5.2c2.3 0 4.2 2 4.2 4.4ZM24 5.2c-2 0-3.4.7-4.4 2.2V5.6h-3v14h3V12c0-2.8 1.6-4 3.6-4s3 1.1 3 3.3v8.2h3V11c.2-3.6-2-5.8-5.2-5.8Zm56 10.2c-.6 1-1.9 1.7-3.6 1.7-2.2 0-4-1-4.4-3.3h11l.1-1.2c0-4-2.8-7.4-7-7.4a7 7 0 0 0-7.3 7.4c0 4.1 3 7.3 7.6 7.3a7 7 0 0 0 6-3l-2.3-1.5ZM76.3 8c1.8 0 3.5 1 4 3.4H72c.4-2 2-3.4 4.2-3.4Zm38.3 9.2c1.7 0 3-.8 3.7-1.7l2.4 1.5a7 7 0 0 1-6 3c-4.7 0-7.6-3.2-7.6-7.3a7 7 0 0 1 7.3-7.4c4.2 0 7 3.3 7 7.4v.6l-.1.6H110c.4 2.2 2.2 3.3 4.4 3.3Zm3.8-5.8c-.4-2.4-2.2-3.4-4-3.4a4.1 4.1 0 0 0-4.3 3.4h8.3Zm21.7 8.2h-3v-2.7h3v2.7Zm-17.2 0h3v-7.5c0-2.8 1.6-4 3.6-4 1.8 0 3 1.2 3 3.2v8.2h3V11c0-3.7-2.2-5.8-5.3-5.8-1.9 0-3.4.7-4.3 2.2V5.6h-3v14ZM87.2 9.5c0-1 .9-1.5 2-1.5 1 0 2 .5 2.5 1.4l2.6-1.3a5.7 5.7 0 0 0-5.1-2.9C86.3 5.2 84 7 84 9.5c0 3 2.4 3.6 4.6 4.2l.3.1c1.5.5 2.6.8 2.6 1.8s-1 1.5-2.4 1.5-2.4-.5-3-1.5l-2.7 1.3c1 1.9 3 3 5.6 3 3 0 5.5-1.5 5.5-4.3 0-3-2.7-3.8-4.7-4.3-1.4-.4-2.7-.8-2.7-1.8Zm11.6 0c0-1 1-1.5 2-1.5s2 .5 2.6 1.5l2.7-1.3c-1-1.8-3-2.9-5.2-2.9-2.9 0-5.1 1.6-5.1 4.3 0 2.9 2.5 3.6 4.6 4.2h.3c1.3.5 2.6.9 2.6 1.9 0 1-1.1 1.5-2.4 1.5-1.4 0-2.4-.5-3-1.5L95.4 17c.9 1.8 2.8 3 5.5 3 3.1 0 5.5-1.6 5.5-4.3 0-3-2.5-3.7-4.6-4.4h-.5c-1.3-.5-2.4-.8-2.4-1.8Zm-45-.9V5.4c-1.8 0-3.5.7-4.4 2.5V5.6h-3v14h3v-7c0-3.2 2.3-4.1 4.3-4ZM67.5 17v7.6c.9-1.4 2.3-2.1 4.3-2.1 3 0 5.3 2 5.3 5.7v8.6h-3v-8.2c0-2.1-1.2-3.3-3.1-3.3-2 0-3.5 1.2-3.5 4v7.5h-3V19.4c-1 .4-2 .6-3.1.6-4.7 0-7.6-3.2-7.6-7.3a7 7 0 0 1 7.3-7.4c4.2 0 7 3.3 7 7.4v.6l-.1.6H57c.4 2.2 2.2 3.3 4.5 3.3 1.3 0 2.3-.5 3-1l.6-.7 2.5 1.4Zm-2.4-5.5C64.7 9 63 8 61.2 8c-2.3 0-3.8 1.3-4.2 3.4h8.2Z"></path></svg>