<svg viewBox="0 0 131 25" xmlns="http://www.w3.org/2000/svg" fill="none"><path fill="#000" d="M31 24.5c-1.3-.4-2.6-.6-3.7-1.2-3-1.5-4.7-4-5.4-7.1-1-4.1-.6-8 2-11.5 2.6-3.2 6-4.5 10-4a10 10 0 0 1 8.6 6.7 13 13 0 0 1-1.4 13 10.3 10.3 0 0 1-6.5 4l-.6.1h-3Zm8.6-11.9c0-2.4-.3-4.7-1.4-6.9A6.1 6.1 0 0 0 32.6 2C30 2 28 3.2 26.8 5.4a13 13 0 0 0-1.4 5.5c-.2 2.8 0 5.5 1.1 8 .8 2 2 3.4 4.1 4 3 .8 6-.4 7.4-3.2 1.3-2.2 1.6-4.6 1.6-7.1ZM130.4 18.2c0 1.5-.2 3-.3 4.4-.1 1.4-.1 1.4-1.5 1.4H111c-.3-1-.2-1.1.8-1.3 2.1-.2 2.4-.5 2.4-2.7V5c0-1.8-.4-2.2-2-2.6h-.5c-1-.2-1-.3-.7-1.3h17.6v5.4c-.9.3-1 .2-1.4-.6l-1.5-2.4a2.8 2.8 0 0 0-2.4-1h-5.6v9c1.4-.1 2.9.2 4.3-.3.5-.2 1-.7 1.3-1.2.3-.4.4-1 .5-1.4.3-1 .3-1 1.4-.8v8.8c-1 .3-1.2.2-1.4-.7 0-.5-.2-1-.4-1.4-.4-1-1.1-1.6-2.2-1.7h-3.5V20c0 2.1.4 2.7 2.6 2.7l5.2-.2a2 2 0 0 0 1.5-1c.7-1 1.4-2 1.8-3.2.3-.8.8-1.1 1.6-1v1ZM96 24.5c-1-.2-1.8-.3-2.6-.6a6.5 6.5 0 0 1-4.8-6.6c.1-4.1 0-8.2 0-12.3 0-1.8-.4-2.3-2.1-2.7-1-.1-1-.1-.8-1.2h9.5v1l-1.7.4c-1 .2-1.3.6-1.4 1.7v12.5l.3 2.4c.5 1.7 1.6 2.9 3.4 3.4 1.4.3 2.9.3 4.3-.1a5 5 0 0 0 3.8-4.8V5.3h-.1c-.2-1.9-.7-2.4-2.5-2.8l-.9-.2c-.4 0-.6-.2-.5-.7 0-.4.1-.5.5-.5h8.8v1l-1.4.4c-1.4.3-1.9.7-2 2.2-.2.8-.2 1.6-.2 2.5v9.4c.1 4.7-3 7-6.3 7.7l-1 .2H96ZM10 24.5c-1.1-.3-2.3-.5-3.4-1a10 10 0 0 1-5.4-6.7C.1 12.8.4 9 2.6 5.4c3-4.7 9-6.2 14-3.6l.6.3c1-1.1 1-1.1 2-1v8.1h-.1c-1 0-1 0-1.3-.9-.4-1.2-.8-2.5-1.5-3.6-2.4-4-7-3-9-.9a9.9 9.9 0 0 0-2.5 5.6c-.5 3-.4 6.1 1 9 1.7 3.4 5 5 8.5 4a7.1 7.1 0 0 0 4.4-4l.3-.6.1-.1 1.1.5c-.5 1.3-1.2 2.5-2.1 3.6a8.6 8.6 0 0 1-5.2 2.6l-.6.1H10ZM65.7 24h-9.4c-.2-1-.2-1.1.8-1.3l1.3-.2c.8-.3.9-.5.6-1.3l-1-3-.5-1C57 15.7 57.3 16 56 16h-6.3c-.5 0-.7 0-.9.5-.4 1.4-1 2.8-1.3 4.2-.2 1 0 1.3 1 1.6.4.1.9.3 1.4.3 1 .2 1 .2.8 1.2h-8.5c-.3-.9-.2-1 .6-1.2 1.6-.3 2.5-1.3 3.1-2.8l5.2-13.1 2-5.3c.2-.5.3-.8 1-.8.6 0 .7.3 1 .8l7.3 19c.5 1.2 1.3 2 2.6 2.2.8.2.8.2.7 1.2Zm-9.2-9.4L53 5.7l-3.4 8.9h6.9ZM68.6 24v-1.2c.6 0 1.1 0 1.7-.2 1.5-.1 2-.7 2-2.1V2.3c-1.4 0-2.6 0-3.8.2-.6.2-1.1.7-1.5 1.2-.6.9-1.2 1.8-1.6 2.8-.3.7-.7.9-1.4.7v-6h20v6c-1 .2-1 .2-1.4-.6A9 9 0 0 0 80.4 3c-.4-.3-1-.6-1.5-.6-1-.1-2 0-3.2 0v17.8c0 1.4.4 1.9 1.7 2.2l2 .4v1H68.5Z"></path></svg>