<svg stroke-linejoin="round" stroke-linecap="round" stroke="#000" fill-rule="evenodd" fill="#fff" viewBox="0 0 103 31" xmlns:xlink="http://www.w3.org/1999/xlink" xmlns="http://www.w3.org/2000/svg"><use y=".5" x=".5" xlink:href="#a"></use><symbol overflow="visible" id="a"><g fill="#000" fill-rule="nonzero" stroke="none"><path d="M43.5 21.3c0 1.7-1.2 2.8-2.5 2.8s-2.4-1-2.4-2.8V8.5c0-1.7 1.2-2.7 2.4-2.7s2.5 1 2.5 2.7v4.8h-1.3V8.5c0-1-.6-1.4-1.2-1.4s-1.2.5-1.2 1.4v12.9c0 .9.6 1.3 1.2 1.3s1.2-.4 1.2-1.3v-4.9h1.3zm5.6-12.5c0-1-.5-1.5-1.2-1.5h-1.1v7h1.1c.7 0 1.2-.5 1.2-1.5zm1.3 15h-1.3V17c0-1-.5-1.5-1.2-1.5h-1.1v8.2h-1.3V6H48c1.2 0 2.3.8 2.3 2.6v4.2c0 1-.5 1.7-1.2 2 .7.3 1.2 1.1 1.2 2.2zm5.7-15.3c0-1-.6-1.4-1.2-1.4s-1.2.5-1.2 1.4v12.9c0 .9.6 1.3 1.2 1.3s1.2-.4 1.2-1.3zm1.3 12.8c0 1.7-1.2 2.8-2.5 2.8s-2.5-1-2.5-2.8V8.5c0-1.7 1.2-2.7 2.5-2.7s2.5 1 2.5 2.7zm6.8-9.8h-1.3v-3c0-.7-.5-1.3-1.2-1.3-.9 0-1.2.7-1.2 1.4s.3 1.7.5 2.4l2.6 7.3c.3.9.6 2 .6 3 0 2-1.3 2.8-2.5 2.8s-2.5-.9-2.5-2.7v-3h1.3v3c0 .7.5 1.3 1.2 1.3.9 0 1.2-.7 1.2-1.4a9 9 0 0 0-.5-2.5l-2.6-7.3c-.3-1-.6-2-.6-2.9 0-2 1.2-2.8 2.5-2.8 1.2 0 2.5.9 2.5 2.7zm6.7 0h-1.3v-3c0-.7-.4-1.3-1.2-1.3-.9 0-1.2.7-1.2 1.4s.3 1.7.5 2.4l2.6 7.3c.3.9.6 2 .6 3 0 2-1.3 2.8-2.5 2.8s-2.5-.9-2.5-2.7v-3h1.3v3c0 .7.5 1.3 1.2 1.3.9 0 1.2-.7 1.2-1.4a9 9 0 0 0-.5-2.5l-2.6-7.3c-.3-1-.6-2-.6-2.9 0-2 1.3-2.8 2.5-2.8s2.5.9 2.5 2.7zm5.5 5.6c0-1-.6-1.5-1.2-1.5h-1.1v7h1c.7 0 1.3-.6 1.3-1.5v-4zm0-8.3c0-1-.6-1.5-1.2-1.5h-1.1v7h1c.7 0 1.3-.5 1.3-1.4V8.8zm1.3 12.6c0 1.5-1.1 2.4-2.2 2.4h-2.7V6h2.6c1.2 0 2.3.8 2.3 2.4V13c0 1-.5 1.7-1.2 2 .7.3 1.2 1 1.2 2v4.5zm2-15.3v17.7H84v-1.3H81v-7h2.2v-1.3H81V7.3h3V6.1zm8.2 4.9.2-2.2.1 2.2.9 7.8h-2zm-.6-5-2.1 17.8h1.3l.4-3.8h2.3l.4 3.8H91L89 6zm12 0-2.2 12.5-.3 2-.4-2-2.2-12.4h-1.8v17.7h1.3V9.4l.3 2.2 2.2 12.2h1l2.3-12.2.3-2.2V23.8h1.3V6zM11.6 20.6H0v9.3h29.9v-9.3H18.3l-3.4-5.7zM0 0v9.3h11.6l3.3 5.6 3.4-5.6h11.6V0z"></path></g></symbol></svg>