<svg xmlns="http://www.w3.org/2000/svg" fill="none" viewBox="0 0 141 64" height="64" width="141">
<path fill="black" d="M0 7.00244V45.9948L5.08013 46.0103V27.4416H17.3287V22.5336H5.08013V11.9081H21.0321V7L0 7.00244Z"></path>
<path fill="black" d="M30.176 14.9177C32.0058 14.9177 33.4891 13.4527 33.4891 11.6456C33.4891 9.83849 32.0058 8.37353 30.176 8.37353C28.3463 8.37353 26.8629 9.83849 26.8629 11.6456C26.8629 13.4527 28.3463 14.9177 30.176 14.9177Z"></path>
<path fill="black" d="M27.5917 19.8258V46.0025H32.6719V19.8258H27.5917Z"></path>
<path fill="black" d="M51.514 19.0623C44.7679 19.0623 40.0601 24.6971 40.0601 31.3871C40.0601 38.0773 44.7679 43.712 51.514 43.712C54.6024 43.712 57.1477 42.5311 59.0001 40.6088V44.0938C59.0001 48.4308 55.5507 52.0558 51.0487 52.0558C49.4305 52.0558 47.8227 51.4363 46.5418 50.5644L43.9963 54.9184C46.0293 56.2127 48.4501 56.9639 51.0487 56.9639C58.2459 56.9639 64.0802 51.2017 64.0802 44.0938V19.8258H59.0001V22.1656C57.1477 20.2432 54.6024 19.0623 51.514 19.0623ZM45.1402 31.3871C45.1402 27.2345 48.3565 23.9705 52.0662 23.9705C55.7761 23.9705 58.9922 27.2345 58.9922 31.3871C58.9922 35.5398 55.7761 38.8039 52.0662 38.8039C48.3565 38.8039 45.1402 35.5398 45.1402 31.3871Z" clip-rule="evenodd" fill-rule="evenodd"></path>
<path fill="black" d="M82.3853 23.9705C79.3814 23.9705 76.9462 26.4844 76.9462 29.4511V46.0025H71.8661V19.8258H76.9462V22.2238C78.4348 20.3234 80.6277 19.0623 83.4896 19.0623C87.0493 19.0623 89.7814 20.8085 91.3637 23.4808C93.1233 20.8996 95.9934 19.0623 99.4479 19.0623C105.23 19.0623 108.829 23.6694 108.863 29.3693C108.863 29.3865 108.863 29.4037 108.863 29.4211V29.4221V29.4229V29.4238C108.863 29.4329 108.863 29.442 108.863 29.4511V46.0025H103.783V29.4511C103.783 26.4844 101.347 23.9705 98.3436 23.9705C95.3395 23.9705 92.9045 26.4844 92.9045 29.4511V46.0025H87.8244V29.4511C87.8244 26.4844 85.3892 23.9705 82.3853 23.9705Z"></path>
<path fill="black" d="M135.92 22.7932C133.66 20.4884 130.565 19.0623 126.974 19.0623C119.417 19.0623 114.053 25.3819 114.053 32.9141C114.053 40.4463 119.417 46.7659 126.974 46.7659C130.565 46.7659 133.66 45.3399 135.92 43.0351V46.0025H141V19.8258H135.92V22.7932ZM119.133 32.9141C119.133 27.917 123.008 23.9705 127.527 23.9705C132.046 23.9705 135.92 27.917 135.92 32.9141C135.92 37.9113 132.046 41.8578 127.527 41.8578C123.008 41.8578 119.133 37.9113 119.133 32.9141Z" clip-rule="evenodd" fill-rule="evenodd"></path>
</svg>
