<svg xmlns="http://www.w3.org/2000/svg" fill="none" viewBox="0 0 130 32" height="32" width="130">
<path fill="#222222" d="M56.9696 13.5005H49.3827C49.1871 13.5005 49.0292 13.6584 49.0292 13.8565V17.5672C49.0292 17.7628 49.1871 17.9232 49.3827 17.9232H52.3437V22.534C52.3437 22.534 51.6793 22.7597 49.8415 22.7597C47.6727 22.7597 44.644 21.9674 44.644 15.3082C44.644 8.6465 47.7981 7.77147 50.7591 7.77147C53.3215 7.77147 54.4272 8.22277 55.1293 8.4409C55.3499 8.5086 55.553 8.28796 55.553 8.0924L56.4004 4.50706C56.4004 4.41429 56.3703 4.30397 56.265 4.23126C55.9767 4.02066 54.2367 3.04785 49.839 3.04785C44.7744 3.04785 39.5769 5.20407 39.5769 15.5639C39.5769 25.9263 45.5266 27.4683 50.541 27.4683C54.693 27.4683 57.2103 25.6932 57.2103 25.6932C57.313 25.6355 57.3256 25.4901 57.3256 25.4249V13.8565C57.3256 13.6584 57.1651 13.5005 56.9696 13.5005Z"></path>
<path fill="#222222" d="M96.079 4.28913C96.079 4.09106 95.9236 3.93311 95.728 3.93311H91.4557C91.2601 3.93311 91.1022 4.09357 91.1022 4.28913V12.5454H84.443V4.28913C84.443 4.09106 84.285 3.93311 84.0895 3.93311H79.8171C79.6216 3.93311 79.4636 4.09357 79.4636 4.28913V26.6486C79.4636 26.8467 79.6216 27.0071 79.8171 27.0071H84.0895C84.285 27.0071 84.443 26.8467 84.443 26.6486V17.0835H91.1022L91.0897 26.6461C91.0897 26.8442 91.2476 27.0046 91.4432 27.0046H95.7255C95.9211 27.0046 96.0765 26.8442 96.079 26.6461V4.28913V4.28913Z"></path>
<path fill="#222222" d="M65.0321 7.22248C65.0321 5.68304 63.7986 4.43945 62.2767 4.43945C60.7573 4.43945 59.5212 5.68304 59.5212 7.22248C59.5212 8.75941 60.7548 10.0055 62.2767 10.0055C63.7986 10.008 65.0321 8.75941 65.0321 7.22248Z"></path>
<path fill="#222222" d="M64.7261 21.9326C64.7261 21.3585 64.7261 11.6129 64.7261 11.6129C64.7261 11.4173 64.5681 11.2568 64.3726 11.2568H60.1128C59.9172 11.2568 59.7417 11.4574 59.7417 11.6555C59.7417 11.6555 59.7417 24.0738 59.7417 26.4431C59.7417 26.8769 60.0125 27.0073 60.3635 27.0073C60.3635 27.0073 62.1812 27.0073 64.2021 27.0073C64.6233 27.0073 64.7261 26.8017 64.7261 26.4356C64.7261 25.6408 64.7261 22.5344 64.7261 21.9326Z"></path>
<path fill="#222222" d="M112.316 11.2896H108.076C107.881 11.2896 107.723 11.45 107.723 11.6481V22.6122C107.723 22.6122 106.645 23.3995 105.118 23.3995C103.588 23.3995 103.182 22.705 103.182 21.2082C103.182 19.7088 103.182 11.6481 103.182 11.6481C103.182 11.45 103.024 11.2896 102.829 11.2896H98.5264C98.3333 11.2896 98.1729 11.45 98.1729 11.6481C98.1729 11.6481 98.1729 17.4874 98.1729 21.9327C98.1729 26.3781 100.65 27.4662 104.06 27.4662C106.855 27.4662 109.112 25.9217 109.112 25.9217C109.112 25.9217 109.22 26.7366 109.267 26.8319C109.315 26.9271 109.443 27.0249 109.578 27.0249L112.316 27.0124C112.509 27.0124 112.67 26.8519 112.67 26.6564L112.667 11.6481C112.672 11.45 112.512 11.2896 112.316 11.2896Z"></path>
<path fill="#222222" d="M123.907 10.7854C121.498 10.7854 119.861 11.861 119.861 11.861V4.28913C119.861 4.09106 119.703 3.93311 119.507 3.93311H115.222C115.027 3.93311 114.869 4.09357 114.869 4.28913V26.6486C114.869 26.8467 115.027 27.0071 115.222 27.0071C115.222 27.0071 118.193 27.0071 118.196 27.0071C118.329 27.0071 118.431 26.9369 118.507 26.8166C118.579 26.6962 118.687 25.7861 118.687 25.7861C118.687 25.7861 120.44 27.4459 123.757 27.4459C127.651 27.4459 129.884 25.4702 129.884 18.5778C129.882 11.688 126.317 10.7854 123.907 10.7854ZM122.235 23.3842C120.763 23.3391 119.768 22.6721 119.768 22.6721V15.5917C119.768 15.5917 120.753 14.9875 121.959 14.8797C123.486 14.7418 124.958 15.2031 124.958 18.8461C124.955 22.6872 124.291 23.4469 122.235 23.3842Z"></path>
<path fill="#222222" d="M77.0069 11.2518H73.8027C73.8027 11.2518 73.7977 7.01957 73.7977 7.01706C73.7977 6.8566 73.7149 6.77637 73.5294 6.77637H69.1618C68.9913 6.77637 68.9011 6.85158 68.9011 7.01455V11.3897C68.9011 11.3897 66.7123 11.9187 66.5643 11.9613C66.4164 12.0039 66.3086 12.1393 66.3086 12.3023V15.0527C66.3086 15.2508 66.4665 15.4088 66.6621 15.4088H68.9011C68.9011 15.4088 68.9011 18.2846 68.9011 22.0228C68.9011 26.937 72.3485 27.4184 74.6727 27.4184C75.7358 27.4184 77.0069 27.0774 77.2175 26.9997C77.3454 26.952 77.4181 26.8217 77.4181 26.6788L77.4206 23.655C77.4206 23.457 77.2552 23.299 77.0671 23.299C76.8816 23.299 76.4027 23.3742 75.9113 23.3742C74.3367 23.3742 73.8027 22.6421 73.8027 21.6944C73.8027 20.7467 73.8027 15.4088 73.8027 15.4088H77.0069C77.2025 15.4088 77.3605 15.2483 77.3605 15.0527V11.6103C77.3605 11.4122 77.2025 11.2518 77.0069 11.2518Z"></path>
<g clip-path="url(#clip0)">
<path fill="#191717" d="M16.1538 0.25C7.22907 0.25 0 7.47805 0 16.4016C0 23.5404 4.63097 29.5885 11.0469 31.7302C11.8501 31.8789 12.1476 31.3831 12.1476 30.9469C12.1476 30.5602 12.1377 29.5489 12.1278 28.2004C7.63564 29.1721 6.68367 26.039 6.68367 26.039C5.94985 24.1749 4.88879 23.6693 4.88879 23.6693C3.42116 22.6678 4.99787 22.6877 4.99787 22.6877C6.61425 22.8067 7.47698 24.3534 7.47698 24.3534C8.91486 26.8222 11.2551 26.1084 12.1774 25.6919C12.3261 24.6509 12.7426 23.937 13.1988 23.5305C9.61893 23.1339 5.85069 21.7458 5.85069 15.5588C5.85069 13.7939 6.47542 12.3562 7.51664 11.2259C7.34807 10.8095 6.79275 9.17351 7.66539 6.95255C7.66539 6.95255 9.02394 6.51629 12.1079 8.60836C13.3971 8.25142 14.7755 8.07295 16.1538 8.06303C17.5223 8.07295 18.9106 8.25142 20.1997 8.60836C23.2837 6.51629 24.6423 6.95255 24.6423 6.95255C25.5249 9.17351 24.9695 10.8194 24.801 11.2259C25.8323 12.3562 26.457 13.7939 26.457 15.5588C26.457 21.7656 22.6788 23.1239 19.0792 23.5305C19.6543 24.0262 20.1799 25.0177 20.1799 26.5248C20.1799 28.6863 20.1601 30.4214 20.1601 30.9568C20.1601 31.3931 20.4477 31.8888 21.2707 31.7302C27.6866 29.5885 32.3077 23.5404 32.3077 16.4115C32.3077 7.47804 25.0786 0.25 16.1538 0.25Z" clip-rule="evenodd" fill-rule="evenodd"></path>
</g>
<defs>
<clipPath id="clip0">
<rect transform="translate(0 0.25)" fill="white" height="31.5" width="32.3077"></rect>
</clipPath>
</defs>
</svg>