<svg viewBox="54.03 1030.93 2891.83 938.07" xml:space="preserve" xmlns="http://www.w3.org/2000/svg" version="1.2"><path d="M2156.2 1287.1h-57.9v426.2H2330v-53h-173.7V1287zm395.6 352.2a100.4 100.4 0 0 1-70.7 30.6c-43.4 0-61.1-21-61.1-49.9 0-41.8 28.9-62.7 91.6-62.7a313 313 0 0 1 40.2 3.2v78.8zm-59.5-258.9c-46.6 0-88.4 16-122.2 43.4l21 35.4c24-12.9 51.4-27.3 93.2-27.3 46.6 0 67.5 24 67.5 64.3v20.9c-9.6-1.6-27.3-3.2-40.2-3.2-99.7 0-151.1 35.3-151.1 109.3 0 66 40.2 98.1 101.3 98.1 41.8 0 80.4-19.3 94.9-49.8l9.6 41.8h40.2v-217.1c0-69.2-29-115.8-114.2-115.8zm299.1 291c-20.9 0-40.2-3.1-54.6-9.6V1464c19.3-16 43.4-27.3 74-27.3 54.6 0 77.1 38.6 77.1 102.9 0 88.5-33.7 131.9-96.5 131.9m24.2-291.1c-51.5 0-78.8 35.4-78.8 35.4v-127.1h-56.3v415c27.3 11.2 66 17.6 107.7 17.6 106.2 0 157.6-67.5 157.6-186.5 1.6-91.7-46.6-154.4-130.2-154.4m-1283.4-46.6c51.5 0 83.7 17.6 104.6 33.7l24-43.4c-33.7-29-78.7-45-127-45-122.2 0-207.4 74-207.4 223.5 0 156 91.7 218.7 197.8 218.7 53 0 98-12.8 127-24l-1.6-167.3v-53.1h-156v53h99.7l1.7 127.1c-13 6.4-35.4 11.3-66 11.3-85.2 0-141.5-53.1-141.5-165.7 1.6-114.2 59.5-168.8 144.7-168.8M1936 1287h-56.3v320c0 69.2 30.6 115.8 115.8 115.8 11.3 0 22.5-1.6 33.8-3.2V1670c-8 1.6-16.1 1.6-25.8 1.6-46.6 0-67.5-24.1-67.5-64.4v-172h93.3v-46.7H1936v-101.3zm-198 426.3h56.3v-324.9H1738v324.9zm0-369.9h56.3v-56.3H1738v56.3z" fill="#8C929D"></path><path d="m560.9 1967.4 186.6-575.8H374.3L561 1967.4z" fill="#E34429"></path><path d="m560.9 1967.4-186.6-575.8h-262l448.6 575.8z" fill="#ED6E30"></path><path d="M112.2 1391.7 56 1566.9a38.3 38.3 0 0 0 14.5 43.5l492 358.6-450.3-577.3z" fill="#F6A22C"></path><path d="M112.2 1391.7h262.1l-112.5-347.4a19.5 19.5 0 0 0-37 0l-112.6 347.4z" fill="#E34429"></path><path d="m560.9 1967.4 186.6-575.8h262L561 1967.4z" fill="#ED6E30"></path><path d="m1011.2 1391.7 56.3 175.2c4.8 16.1 0 33.8-14.5 43.5l-492.1 357 450.3-575.7z" fill="#F6A22C"></path><path d="M1011.2 1391.7H749.1l112.5-347.4a19.5 19.5 0 0 1 37 0l112.6 347.4z" fill="#E34429"></path></svg>