<svg viewBox="0 0 119 39" xmlns="http://www.w3.org/2000/svg" fill="none"><path fill="#000" d="M8.6 9.8v.6c-2 0-2.5 1-2.5 3.5v13.3c0 2.5.6 3.4 2.5 3.4v.6H.9v-.6c1.8 0 2.4-.8 2.4-3.4V13.9c0-2.7-.5-3.5-2.4-3.5v-.6h7.7ZM87.7 0a2.2 2.2 0 1 1 0 4.5 2.2 2.2 0 0 1 0-4.5ZM30.3 9.5v6.4h-.6c-1-4-3.3-5.8-7-5.8-5 0-7.9 4-7.9 9.6 0 6.4 3.3 10.7 8.2 10.7a8 8 0 0 0 7.4-4.7l.6.5a9.3 9.3 0 0 1-9 5.5c-5.2 0-10.5-3.6-10.5-10.6 0-6.9 4.7-11.9 11-11.9 1.3 0 2.5.2 3.6.5.8.2 1.6.4 2.5.4.5 0 1-.2 1.1-.6h.6Zm15.1 22.2c-6.2.1-11.3-4.8-11.4-11v-.3A11 11 0 0 1 45.5 9.3c6.2-.2 11.3 4.7 11.4 11v.1c0 6.3-5 11.3-11.3 11.4h-.2Zm8.2-11.1c0-6.5-3.4-10.5-8-10.5-4.9 0-8.3 4-8.3 10.3 0 6.4 3.4 10.5 8 10.5 5.4 0 8.3-5 8.3-10.3Zm11-10.8L78 26.5V14c0-2.7-.6-3.6-2.6-3.6v-.6H82v.6c-2.2 0-2.8 1-2.8 3.5v17.3h-.6L63.4 12.6h-.1v15c0 2.2.8 3 2.8 3v.6h-6.5v-.6c1.8 0 2.7-.5 2.7-3.7V14.4c0-2.7-.9-3.7-3.2-4v-.6h5.5Zm27 0v.6c-1.9 0-2.4 1-2.4 3.5v13.3c0 2.5.5 3.4 2.4 3.4v.6H84v-.6c1.9 0 2.4-.8 2.4-3.4V13.9c0-2.7-.5-3.5-2.4-3.5v-.6h7.7Zm16.7 21.7c1.3 1 4 6 7.7 6 .6 0 1.3-.2 2-.4l.1.6c-1 .5-2.3.8-3.5.8a9.6 9.6 0 0 1-7.4-3.3c-1.2-1.2-2.5-3-3.7-3.7-4.8-1-9-5.6-9-10.8a11.2 11.2 0 0 1 11-11.4h.4a11.2 11.2 0 0 1 2.4 22.2Zm5.9-10.8c0-7.4-4-10.6-8-10.6-5 0-8.4 3.9-8.4 10.4 0 6.3 3.4 10.4 8.1 10.4 5 0 8.3-3.8 8.3-10.2Z"></path></svg>