<svg fill="#000" height="31" viewBox="0 0 122 31" width="122" xmlns="http://www.w3.org/2000/svg"><g fill="#000"><g clip-rule="evenodd" fill-rule="evenodd"><path d="m42.8735 20.2266c0 .5171-.3791.9423-.9184.9423-.5247 0-.9038-.4261-.9038-.9423v-8.9845c0-.5172.3791-.9423.9184-.9423.5247 0 .9038.4261.9038.9423z"></path><path d="m54.6514 11.2424v8.2096c0 1.1099-.5682 1.7336-1.472 1.7336h-.0724c-.8599 0-1.2687-.5172-1.6328-1.2774l-1.8369-3.7247-1.6327-3.8458.0439 3.7247.0147 4.1499c0 .5171-.3787.9423-.9185.9423-.5247 0-.9034-.4261-.9034-.9423v-8.2097c0-1.0188.5683-1.7336 1.5599-1.7336h.0728c.9185 0 1.2972.5172 1.662 1.2775l1.8073 3.6946 1.5452 3.5882-.0435-3.4361-.0146-4.1499c0-.5171.3787-.9423.9184-.9423.5235-.001.9026.4242.9026.9414z"></path><path d="m61.955 20.2123c0 .5172-.3787.9423-.9184.9423-.5243 0-.9034-.4261-.9034-.9423v-8.1332h-2.2596c-.4661 0-.8448-.3651-.8448-.8968 0-.5171.3787-.8813.8448-.8813h6.3409c.4662 0 .8453.3651.8453.8968 0 .5172-.3791.8813-.8453.8813h-2.2595z"></path><path d="m67.4359 19.9081v-8.4372c0-.7903.4226-1.2309 1.1955-1.2009h5.2479c.4662 0 .8449.3796.8449.8968s-.3787.8813-.8449.8813h-4.6362v2.6149h4.0965c.4523 0 .8163.3496.8163.8512 0 .5017-.364.8513-.8163.8513h-4.0965v3.01h4.6362c.4662 0 .8449.3797.8449.8968 0 .5172-.3787.8813-.8449.8813h-5.2918c-.7578.001-1.18-.4397-1.1516-1.2455z"></path><path d="m84.6524 21.2001c.5101-.2741.6708-.8368.4226-1.2774l-1.8222-3.3742c1.5017-.304 2.3767-1.4594 2.3767-3.0254 0-1.6416-.9909-3.2531-3.3676-3.2531h-3.4545c-.7725-.03-1.1951.4106-1.1951 1.2009v8.7569c0 .5161.3787.9423.9034.9423.5398 0 .9185-.4252.9185-.9423l-.0147-3.3141h1.924l2.0264 3.9068c.2469.4406.7867.6382 1.2825.3796zm-2.3478-6.0054h-2.8863v-3.1476h2.8717c.962 0 1.5017.6382 1.5017 1.5661 0 .9277-.51 1.5815-1.4871 1.5815z"></path><path d="m89.3899 20.3487c-1.0929-1.0189-1.5888-2.6149-1.5888-4.6215 0-2.0222.4812-3.6028 1.5604-4.6061.6703-.6082 1.5737-1.0188 2.8863-1.0188 1.1515 0 2.0411.2741 2.7114.8668.5833.4861 1.0059 1.1708 1.2536 2.1287.131.5016-.2041 1.0033-.7577 1.1098-.5248.0911-.947-.2586-1.1076-.7602-.1749-.4862-.4088-.8358-.6854-1.0799-.3791-.3496-.8453-.5016-1.4582-.5016-.6557 0-1.2248.1975-1.6474.6382-.6122.6382-.8749 1.7791-.8749 3.2231 0 1.4294.2481 2.5693.8895 3.2075.4227.4406.9771.6382 1.6181.6382.6704 0 1.1804-.1821 1.6039-.5927.218-.213.4083-.4862.5393-.8058.1896-.4716.5833-.8212 1.093-.6992.51.122.8314.6382.6707 1.1399-.2628.8358-.7143 1.505-1.3264 1.9611-.6704.5017-1.5014.7603-2.5508.7603-1.3411 0-2.1871-.4107-2.829-.9878z"></path><path d="m102.773 10.1023c-3.1637 0-4.5048 2.2197-4.5048 5.6249 0 3.5116 1.3272 5.6248 4.5048 5.6248 3.119 0 4.49-2.1132 4.49-5.6248 0-3.4662-1.356-5.6249-4.49-5.6249zm-.015 1.7791c1.735 0 2.639 1.2609 2.639 3.8458 0 2.5838-.919 3.8457-2.639 3.8457-1.734 0-2.609-1.2609-2.609-3.8457 0-2.5839.903-3.8458 2.609-3.8458z"></path><path d="m121.403 20.2123c0 .5172-.379.9423-.918.9423-.525 0-.904-.4261-.904-.9423v-4.0743l.044-3.9679-1.269 4.0289-1.282 3.9677c-.218.6993-.671.9734-1.239.9734-.598 0-1.036-.2886-1.269-.9879l-1.312-3.9522-1.21-3.9679.044 3.9068v4.0743c0 .5172-.379.9424-.919.9424-.525 0-.903-.4261-.903-.9424v-8.1331c0-1.1254.583-1.7791 1.603-1.7791.963 0 1.502.5317 1.807 1.505l1.341 4.1499.817 2.8279.831-2.8279 1.341-4.1499c.307-.9733.831-1.505 1.793-1.505 1.021 0 1.589.6382 1.589 1.7791z"></path></g><path d="m26.3375 17.2804c0 .2719-.1042.5327-.2896.725s-.4369.3003-.6991.3003c-.2623 0-.5138-.108-.6992-.3003-.1855-.1923-.2896-.4531-.2896-.725v-9.16049c0-.27196.1041-.53277.2896-.72504.1854-.19232.4369-.30035.6992-.30035.2622 0 .5137.10803.6991.30035.1854.19227.2896.45308.2896.72504zm-.3432 6.347c-.1308.1356-3.8079 3.3134-10.5495 3.3134-6.74157 0-10.39423-3.1609-10.54949-3.2964-.09787-.0856-.17844-.1903-.23718-.3082-.05873-.118-.09441-.2468-.10506-.379-.01062-.1323.00402-.2654.04311-.3918s.10185-.2435.18471-.3447c.17067-.2047.41245-.3312.67269-.3519.26024-.0206.5178.0663.71646.2418.05723.0423 3.34219 2.8049 9.26656 2.8049 5.9244 0 9.2339-2.7795 9.2666-2.8049.2009-.1739.4593-.2597.7202-.2391.261.0205.5039.1459.6771.3492.1667.2017.25.4635.2316.7285s-.1368.5118-.3296.6867zm-21.45039-15.50749c.01477-.27281.1331-.52846.32911-.71109.19598-.18259.45374-.27733.71687-.26346.24393.01436.47411.12191.64613.30186.17201.17995.2737.41957.28542.67269v9.14349c0 .272-.10417.5328-.28961.725-.1854.1924-.4369.3003-.69913.3003-.26224 0-.51374-.1079-.69918-.3003-.18544-.1922-.28961-.453-.28961-.725zm4.96014-2.03378c.01481-.27281.13309-.52845.32911-.71109.19594-.18259.45374-.27732.71684-.26345.244.01436.4741.1219.6462.30185.172.17995.2737.41957.2854.67269v13.55847c0 .2719-.1042.5328-.2896.7251-.1854.1922-.4369.3003-.6992.3003-.2622 0-.5137-.1081-.69914-.3003-.18544-.1923-.28961-.4532-.28961-.7251zm4.98465-.50844c0-.27196.1042-.53277.2896-.72504.1855-.19232.437-.30035.6992-.30035s.5137.10803.6991.30035c.1855.19227.2896.45308.2896.72504v14.74481c0 .272-.1041.5328-.2896.7251-.1854.1923-.4369.3003-.6991.3003s-.5137-.108-.6992-.3003c-.1854-.1923-.2896-.4531-.2896-.7251zm4.903.50844c0-.27195.1041-.53276.2896-.72504.1854-.19231.4369-.30035.6991-.30035.2623 0 .5138.10804.6992.30035.1854.19228.2896.45309.2896.72504v13.55847c0 .2719-.1042.5328-.2896.7251-.1854.1922-.4369.3003-.6992.3003-.2622 0-.5137-.1081-.6991-.3003-.1855-.1923-.2896-.4532-.2896-.7251zm7.2155-5.59288h-22.29209c-.48574-.003376-.96734.092659-1.41721.282614-.44991.189914-.85923.470006-1.20461.824206-.34537.35424-.61997.7756-.808058 1.24004-.188124.46439-.28603.96274-.288186 1.46647v22.87992c.002156.5037.100062 1.0021.288186 1.4665.188088.4644.462688.8858.808058 1.24.34538.3542.7547.6343 1.20461.8242.44987.19.93147.2859 1.41721.2826h22.29209c.485.0033.9659-.0923 1.4153-.2818.4494-.1893.8584-.4687 1.2036-.822.3453-.3533.62-.7737.8086-1.2371.1886-.4635.2873-.9609.2905-1.4639v-22.88842c-.0021-.50303-.0998-1.00066-.2874-1.46452-.1876-.46387-.4614-.88486-.8059-1.23898-.3445-.35408-.7529-.634333-1.2019-.824776-.4489-.190443-.9296-.287291-1.4146-.285054"></path></g></svg>