<svg fill="none" height="490" viewBox="0 0 505 490" width="505" xmlns="http://www.w3.org/2000/svg" xmlns:xlink="http://www.w3.org/1999/xlink"><filter id="a" color-interpolation-filters="sRGB" filterUnits="userSpaceOnUse" height="124.806" width="124.806" x="190.097" y="364.695"><feFlood flood-opacity="0" result="BackgroundImageFix"/><feColorMatrix in="SourceAlpha" result="hardAlpha" type="matrix" values="0 0 0 0 0 0 0 0 0 0 0 0 0 0 0 0 0 0 127 0"/><feOffset dy="4.62245"/><feGaussianBlur stdDeviation="2.31123"/><feComposite in2="hardAlpha" operator="out"/><feColorMatrix type="matrix" values="0 0 0 0 0 0 0 0 0 0 0 0 0 0 0 0 0 0 0.15 0"/><feBlend in2="BackgroundImageFix" mode="normal" result="effect1_dropShadow_6_346"/><feBlend in="SourceGraphic" in2="effect1_dropShadow_6_346" mode="normal" result="shape"/></filter><filter id="b" color-interpolation-filters="sRGB" filterUnits="userSpaceOnUse" height="124.806" width="124.806" x=".577011" y="182.72"><feFlood flood-opacity="0" result="BackgroundImageFix"/><feColorMatrix in="SourceAlpha" result="hardAlpha" type="matrix" values="0 0 0 0 0 0 0 0 0 0 0 0 0 0 0 0 0 0 127 0"/><feOffset dy="4.62245"/><feGaussianBlur stdDeviation="2.31123"/><feComposite in2="hardAlpha" operator="out"/><feColorMatrix type="matrix" values="0 0 0 0 0 0 0 0 0 0 0 0 0 0 0 0 0 0 0.15 0"/><feBlend in2="BackgroundImageFix" mode="normal" result="effect1_dropShadow_6_346"/><feBlend in="SourceGraphic" in2="effect1_dropShadow_6_346" mode="normal" result="shape"/></filter><filter id="c" color-interpolation-filters="sRGB" filterUnits="userSpaceOnUse" height="124.806" width="124.806" x="379.618" y="182.719"><feFlood flood-opacity="0" result="BackgroundImageFix"/><feColorMatrix in="SourceAlpha" result="hardAlpha" type="matrix" values="0 0 0 0 0 0 0 0 0 0 0 0 0 0 0 0 0 0 127 0"/><feOffset dy="4.62245"/><feGaussianBlur stdDeviation="2.31123"/><feComposite in2="hardAlpha" operator="out"/><feColorMatrix type="matrix" values="0 0 0 0 0 0 0 0 0 0 0 0 0 0 0 0 0 0 0.15 0"/><feBlend in2="BackgroundImageFix" mode="normal" result="effect1_dropShadow_6_346"/><feBlend in="SourceGraphic" in2="effect1_dropShadow_6_346" mode="normal" result="shape"/></filter><filter id="d" color-interpolation-filters="sRGB" filterUnits="userSpaceOnUse" height="117.661" width="117.661" x="7.45737" y="364.695"><feFlood flood-opacity="0" result="BackgroundImageFix"/><feColorMatrix in="SourceAlpha" result="hardAlpha" type="matrix" values="0 0 0 0 0 0 0 0 0 0 0 0 0 0 0 0 0 0 127 0"/><feOffset dy="4.35781"/><feGaussianBlur stdDeviation="2.17891"/><feComposite in2="hardAlpha" operator="out"/><feColorMatrix type="matrix" values="0 0 0 0 0 0 0 0 0 0 0 0 0 0 0 0 0 0 0.15 0"/><feBlend in2="BackgroundImageFix" mode="normal" result="effect1_dropShadow_6_346"/><feBlend in="SourceGraphic" in2="effect1_dropShadow_6_346" mode="normal" result="shape"/></filter><filter id="e" color-interpolation-filters="sRGB" filterUnits="userSpaceOnUse" height="124.806" width="124.806" x="379.618" y=".743896"><feFlood flood-opacity="0" result="BackgroundImageFix"/><feColorMatrix in="SourceAlpha" result="hardAlpha" type="matrix" values="0 0 0 0 0 0 0 0 0 0 0 0 0 0 0 0 0 0 127 0"/><feOffset dy="4.62245"/><feGaussianBlur stdDeviation="2.31123"/><feComposite in2="hardAlpha" operator="out"/><feColorMatrix type="matrix" values="0 0 0 0 0 0 0 0 0 0 0 0 0 0 0 0 0 0 0.15 0"/><feBlend in2="BackgroundImageFix" mode="normal" result="effect1_dropShadow_6_346"/><feBlend in="SourceGraphic" in2="effect1_dropShadow_6_346" mode="normal" result="shape"/></filter><filter id="f" color-interpolation-filters="sRGB" filterUnits="userSpaceOnUse" height="124.806" width="124.806" x="190.097" y="182.72"><feFlood flood-opacity="0" result="BackgroundImageFix"/><feColorMatrix in="SourceAlpha" result="hardAlpha" type="matrix" values="0 0 0 0 0 0 0 0 0 0 0 0 0 0 0 0 0 0 127 0"/><feOffset dy="4.62245"/><feGaussianBlur stdDeviation="2.31123"/><feComposite in2="hardAlpha" operator="out"/><feColorMatrix type="matrix" values="0 0 0 0 0 0 0 0 0 0 0 0 0 0 0 0 0 0 0.15 0"/><feBlend in2="BackgroundImageFix" mode="normal" result="effect1_dropShadow_6_346"/><feBlend in="SourceGraphic" in2="effect1_dropShadow_6_346" mode="normal" result="shape"/></filter><filter id="g" color-interpolation-filters="sRGB" filterUnits="userSpaceOnUse" height="124.806" width="124.806" x="190.097" y=".743896"><feFlood flood-opacity="0" result="BackgroundImageFix"/><feColorMatrix in="SourceAlpha" result="hardAlpha" type="matrix" values="0 0 0 0 0 0 0 0 0 0 0 0 0 0 0 0 0 0 127 0"/><feOffset dy="4.62245"/><feGaussianBlur stdDeviation="2.31123"/><feComposite in2="hardAlpha" operator="out"/><feColorMatrix type="matrix" values="0 0 0 0 0 0 0 0 0 0 0 0 0 0 0 0 0 0 0.15 0"/><feBlend in2="BackgroundImageFix" mode="normal" result="effect1_dropShadow_6_346"/><feBlend in="SourceGraphic" in2="effect1_dropShadow_6_346" mode="normal" result="shape"/></filter><filter id="h" color-interpolation-filters="sRGB" filterUnits="userSpaceOnUse" height="124.806" width="124.806" x=".576034" y=".743896"><feFlood flood-opacity="0" result="BackgroundImageFix"/><feColorMatrix in="SourceAlpha" result="hardAlpha" type="matrix" values="0 0 0 0 0 0 0 0 0 0 0 0 0 0 0 0 0 0 127 0"/><feOffset dy="4.62245"/><feGaussianBlur stdDeviation="2.31123"/><feComposite in2="hardAlpha" operator="out"/><feColorMatrix type="matrix" values="0 0 0 0 0 0 0 0 0 0 0 0 0 0 0 0 0 0 0.15 0"/><feBlend in2="BackgroundImageFix" mode="normal" result="effect1_dropShadow_6_346"/><feBlend in="SourceGraphic" in2="effect1_dropShadow_6_346" mode="normal" result="shape"/></filter><filter id="i" color-interpolation-filters="sRGB" filterUnits="userSpaceOnUse" height="124.806" width="124.806" x="379.618" y="364.695"><feFlood flood-opacity="0" result="BackgroundImageFix"/><feColorMatrix in="SourceAlpha" result="hardAlpha" type="matrix" values="0 0 0 0 0 0 0 0 0 0 0 0 0 0 0 0 0 0 127 0"/><feOffset dy="4.62245"/><feGaussianBlur stdDeviation="2.31123"/><feComposite in2="hardAlpha" operator="out"/><feColorMatrix type="matrix" values="0 0 0 0 0 0 0 0 0 0 0 0 0 0 0 0 0 0 0.15 0"/><feBlend in2="BackgroundImageFix" mode="normal" result="effect1_dropShadow_6_346"/><feBlend in="SourceGraphic" in2="effect1_dropShadow_6_346" mode="normal" result="shape"/></filter><linearGradient id="j"><stop offset=".18" stop-color="#0050d3"/><stop offset="1" stop-color="#0082ff"/></linearGradient><linearGradient id="k" gradientUnits="userSpaceOnUse" x1="457.749" x2="443.761" xlink:href="#j" y1="409.785" y2="424.211"/><linearGradient id="l" gradientUnits="userSpaceOnUse" x1="442.405" x2="426.229" xlink:href="#j" y1="426.26" y2="441.998"/><clipPath id="m"><path d="m227.406 384.834h50.1885v75.2827h-50.1885z"/></clipPath><clipPath id="n"><path d="m27.5248 392.201h77.5267v53.9316h-77.5267z"/></clipPath><g filter="url(#a)"><circle cx="252.5" cy="422.475" fill="#fff" r="57.7807"/></g><g clip-path="url(#m)"><path d="m252.5 422.475c0-6.859 5.561-12.419 12.42-12.419s12.419 5.56 12.419 12.419-5.56 12.419-12.419 12.419-12.42-5.56-12.42-12.419z" fill="#1abcfe"/><path d="m227.661 447.314c0-6.859 5.56-12.419 12.419-12.419h12.419v12.419c0 6.859-5.56 12.42-12.419 12.42s-12.419-5.561-12.419-12.42z" fill="#0acf83"/><path d="m252.5 385.217v24.838h12.42c6.859 0 12.419-5.56 12.419-12.419s-5.56-12.419-12.419-12.419z" fill="#ff7262"/><path d="m227.661 397.636c0 6.859 5.56 12.419 12.419 12.419h12.419v-24.838h-12.419c-6.859 0-12.419 5.56-12.419 12.419z" fill="#f24e1e"/><path d="m227.661 422.475c0 6.859 5.56 12.419 12.419 12.419h12.419v-24.838h-12.419c-6.859 0-12.419 5.56-12.419 12.419z" fill="#a259ff"/></g><g filter="url(#b)"><circle cx="62.9801" cy="240.501" fill="#fff" r="57.7807"/></g><path d="m95.3367 229.041-7.7041 4.238-7.7042 7.319v25.115h10.7858c2.5532 0 4.6225-2.069 4.6225-4.622z" fill="#4caf50"/><path d="m30.6218 229.041 5.5685 2.635 9.8398 8.922v25.115h-10.7858c-2.5532 0-4.6225-2.069-4.6225-4.622z" fill="#1e88e5"/><path d="m79.9284 221.337-16.9491 12.712-16.9492-12.712-1.5408 8.937 1.5408 10.324 16.9492 12.711 16.9491-12.711 1.5409-10.324z" fill="#e53935"/><path d="m30.6218 223.029v6.012l15.4083 11.557v-19.261l-4.8136-3.607c-1.1463-.86-2.5393-1.324-3.9722-1.324-3.658 0-6.6225 2.965-6.6225 6.623z" fill="#c62828"/><path d="m95.3367 223.029v6.012l-15.4083 11.557v-19.261l4.8136-3.607c1.1464-.86 2.5393-1.324 3.9722-1.324 3.658 0 6.6225 2.965 6.6225 6.623z" fill="#fbc02d"/><g filter="url(#c)"><circle cx="442.021" cy="240.5" fill="#fff" r="57.7807"/></g><path d="m421.574 249.804c0 4.078-3.331 7.409-7.409 7.409s-7.409-3.331-7.409-7.409 3.331-7.409 7.409-7.409h7.409z" fill="#e01e5a"/><path d="m425.307 249.804c0-4.078 3.331-7.409 7.409-7.409s7.409 3.331 7.409 7.409v18.552c0 4.078-3.331 7.409-7.409 7.409s-7.409-3.331-7.409-7.409z" fill="#e01e5a"/><path d="m432.716 220.053c-4.078 0-7.409-3.332-7.409-7.41s3.331-7.409 7.409-7.409 7.409 3.331 7.409 7.409v7.41z" fill="#36c5f0"/><path d="m432.716 223.786c4.078 0 7.409 3.331 7.409 7.409s-3.331 7.409-7.409 7.409h-18.551c-4.078 0-7.409-3.331-7.409-7.409s3.331-7.409 7.409-7.409z" fill="#36c5f0"/><path d="m462.467 231.195c0-4.078 3.331-7.409 7.409-7.409s7.409 3.331 7.409 7.409-3.331 7.409-7.409 7.409h-7.409z" fill="#2eb67d"/><path d="m458.734 231.195c0 4.078-3.331 7.409-7.409 7.409s-7.409-3.331-7.409-7.409v-18.552c0-4.078 3.331-7.409 7.409-7.409s7.409 3.331 7.409 7.409z" fill="#2eb67d"/><path d="m451.325 260.947c4.078 0 7.409 3.331 7.409 7.409s-3.331 7.409-7.409 7.409-7.409-3.331-7.409-7.409v-7.409z" fill="#ecb22e"/><path d="m451.325 257.213c-4.078 0-7.409-3.331-7.409-7.409s3.331-7.409 7.409-7.409h18.551c4.078 0 7.41 3.331 7.41 7.409s-3.332 7.409-7.41 7.409z" fill="#ecb22e"/><g filter="url(#d)"><circle cx="66.2878" cy="419.167" fill="#fff" r="54.4727"/></g><g clip-path="url(#n)" clip-rule="evenodd" fill-rule="evenodd"><path d="m59.5889 398.083c2.4842-2.588 5.9451-4.195 9.7709-4.195 5.0855 0 9.5239 2.836 11.8868 7.047 2.1142-.944 4.4041-1.431 6.7196-1.428 9.1734 0 16.6088 7.502 16.6088 16.757s-7.4354 16.756-16.6088 16.756c-1.1216 0-2.2154-.112-3.273-.325-2.0806 3.71-6.0479 6.218-10.5993 6.218-1.9053 0-3.7078-.438-5.3114-1.222-2.1101 4.963-7.0254 8.442-12.7531 8.442-5.9645 0-11.0493-3.776-13.0001-9.069-.8692.184-1.7551.276-2.6435.276-7.1029.001-12.861-5.817-12.861-12.994-.0053-2.275.5856-4.511 1.7139-6.486s2.7546-3.619 4.7166-4.77c-.814-1.875-1.2328-3.899-1.2303-5.943 0-8.255 6.7002-14.946 14.9652-14.946 2.3024-.003 4.5743.527 6.6384 1.547 2.064 1.02 3.8643 2.504 5.2603 4.335z" fill="#00a1e0"/><path d="m38.6858 420.17.3118-.866c.0497-.148.1618-.099.2073-.071.0868.051.1492.097.2613.163.9185.581 1.7696.587 2.035.587.6877 0 1.1141-.364 1.1141-.856v-.025c0-.534-.6573-.736-1.4166-.969l-.1685-.054c-1.0424-.297-2.1573-.725-2.1573-2.045v-.027c0-1.252 1.0104-2.126 2.4564-2.126l.1584-.002c.8495 0 1.6702.247 2.2652.608.0539.033.1062.096.0758.178l-.3202.866c-.0565.147-.2107.05-.2107.05-.6207-.324-1.3075-.5-2.0072-.515-.6135 0-1.0079.325-1.0079.766v.028c0 .515.6758.735 1.4595.99l.1349.043c1.039.328 2.148.783 2.148 2.035v.026c0 1.352-.9826 2.192-2.5626 2.192-.7761 0-1.5185-.119-2.3039-.536-.1483-.086-.295-.16-.4399-.266-.0152-.022-.0817-.048-.0337-.174zm23.1375 0 .3127-.866c.0455-.141.1778-.089.2064-.071.086.053.15.097.2613.163.9202.581 1.7696.587 2.0376.587.6851 0 1.1123-.364 1.1123-.856v-.025c0-.534-.6564-.736-1.4157-.969l-.1685-.054c-1.0441-.297-2.159-.725-2.159-2.045v-.027c0-1.252 1.0112-2.126 2.4573-2.126l.1576-.002c.8494 0 1.671.247 2.2668.608.0522.033.1053.096.0758.178-.0295.077-.2924.785-.3202.866-.0582.147-.2107.05-.2107.05-.6209-.324-1.3081-.5-2.0081-.515-.6135 0-1.0078.325-1.0078.766v.028c0 .515.675.735 1.4595.99l.1348.043c1.039.328 2.1472.783 2.1472 2.035v.026c0 1.352-.9817 2.192-2.5618 2.192-.7769 0-1.5193-.119-2.3039-.536-.1483-.086-.2949-.16-.4407-.266-.0152-.022-.0817-.048-.0329-.174zm17.1149-4.07c.1298.435.1938.913.1938 1.418s-.064.982-.1938 1.416c-.1187.42-.3223.81-.5983 1.147-.2765.328-.6233.589-1.0146.764-.4045.185-.8797.278-1.414.278s-1.0112-.093-1.414-.278c-.3913-.175-.7381-.436-1.0146-.764-.2757-.337-.4796-.727-.5992-1.146-.1325-.46-.1977-.938-.1938-1.417 0-.506.0649-.983.1938-1.418.1298-.438.3312-.824.5983-1.146.2772-.328.6241-.592 1.0155-.77.4036-.189.878-.284 1.414-.284.5359 0 1.0104.095 1.414.284.4028.188.7449.447 1.0146.77.268.322.4702.708.5983 1.146zm-1.3179 1.418c0-.764-.1416-1.365-.4231-1.787-.2781-.418-.6994-.62-1.2859-.62s-1.0045.202-1.2792.62c-.2756.422-.4163 1.023-.4163 1.787 0 .763.1407 1.368.418 1.793.273.423.691.628 1.2775.628s1.0078-.206 1.2859-.628c.2798-.425.4231-1.03.4231-1.793zm12.1531 2.216.3236.895c.0421.11-.0531.158-.0531.158-.4997.193-1.1932.332-1.8682.332-1.1444 0-2.0208-.33-2.6056-.98-.5814-.649-.8781-1.532-.8781-2.626 0-.507.0734-.986.2166-1.42.1433-.438.3581-.824.6413-1.146.294-.331.6566-.594 1.0626-.77.4213-.188.9168-.283 1.4696-.283.3734 0 .7054.023.9902.065.3042.047.7095.157.8806.224.0312.011.118.053.0826.155-.1247.352-.2098.581-.3253.901-.0506.137-.1534.091-.1534.091-.4339-.136-.8502-.199-1.3938-.199-.653 0-1.1435.218-1.4637.643-.3236.429-.5048.991-.5073 1.739-.0025.82.2031 1.427.5671 1.803.3632.375.8705.565 1.5093.565.2587 0 .5031-.017.723-.052.2174-.034.4213-.102.6135-.177 0 0 .1238-.046.1685.082zm6.7499-3.882c.2873 1.006.1373 1.875.1323 1.923-.011.114-.1289.116-.1289.116l-4.4654-.003c.0278.678.1904 1.158.5191 1.485.3227.319.8351.524 1.5286.525 1.0601.002 1.5126-.211 1.8337-.33 0 0 .1222-.044.1685.078l.2907.818c.059.137.0118.185-.0379.213-.2797.154-.9581.442-2.2491.446-.6261.002-1.1713-.087-1.6205-.261-.4268-.158-.8112-.413-1.1233-.744-.2982-.326-.5197-.713-.648-1.136-.1382-.462-.2061-.943-.2014-1.425 0-.506.0649-.986.1955-1.425.1306-.443.3337-.833.6042-1.161.2804-.334.6319-.602 1.0289-.783.4096-.193.9169-.288 1.4747-.288.4778 0 .9143.103 1.2775.26.2798.119.5612.336.8494.646.1821.196.4593.624.5714 1.046zm-4.4409.933h3.1853c-.0329-.41-.1129-.777-.2966-1.054-.2798-.418-.6657-.648-1.2514-.648-.5865 0-1.0028.23-1.2784.648-.1803.277-.2957.629-.3589 1.054zm-31.3267-.933c.2865 1.006.139 1.875.134 1.923-.0118.114-.1298.116-.1298.116l-4.4662-.003c.0286.678.1904 1.158.5199 1.485.3227.319.8343.524 1.5278.525 1.0601.002 1.5143-.211 1.8345-.33 0 0 .1222-.044.1677.078l.2916.818c.0589.137.0118.185-.0371.213-.2815.154-.9607.442-2.25.446-.6269.002-1.1721-.087-1.6205-.261-.4269-.159-.8116-.413-1.1241-.744-.2974-.326-.5183-.714-.6463-1.136-.1392-.462-.2077-.943-.2031-1.425 0-.506.0657-.986.1955-1.425.1214-.424.3272-.819.605-1.161.2803-.334.6315-.602 1.0281-.783.4112-.193.9185-.288 1.4747-.288.4396-.001.8748.087 1.2792.26.2798.119.5612.336.8486.646.182.196.4592.624.5705 1.046zm-4.4418.933h3.187c-.0337-.41-.1138-.777-.2966-1.054-.2781-.418-.6657-.648-1.2514-.648-.5865 0-1.0036.23-1.2775.648-.182.277-.2966.629-.3615 1.054zm-7.8757-.213s.3522.031.7365.086v-.188c0-.596-.1239-.877-.3674-1.065-.2495-.19-.6219-.289-1.1039-.289 0 0-1.0871-.013-1.9466.454-.0396.023-.0725.037-.0725.037s-.1079.038-.1466-.073l-.316-.849c-.0489-.122.0396-.178.0396-.178.4019-.314 1.3761-.503 1.3761-.503.3954-.07.7959-.107 1.1974-.111.8916 0 1.5817.208 2.0511.618.4702.412.7096 1.076.7096 1.971l.0025 4.086s.0092.117-.1028.144c0 0-.1644.046-.3118.081-.1492.034-.6868.144-1.1258.218-.4484.075-.9022.113-1.3568.113-.4339 0-.8317-.041-1.1822-.121-.3267-.068-.6361-.202-.9093-.394-.249-.181-.4488-.421-.5814-.699-.1374-.28-.2065-.623-.2065-1.019 0-.389.0817-.735.2393-1.03.1584-.293.3759-.542.6489-.737.282-.198.5974-.345.9311-.432.3481-.093.718-.141 1.1006-.141.2806 0 .5149.006.6969.021zm-1.7772 3.138c-.0026-.001.4002.316 1.3095.26.6388-.039 1.205-.16 1.205-.16v-2.031s-.5713-.093-1.2126-.103c-.9092-.011-1.2969.324-1.2943.323-.268.19-.3986.473-.3986.864 0 .25.0446.446.1348.582.0565.09.0809.124.2562.265zm37.7985-5.44c-.0422.122-.2587.734-.3371.937-.0287.078-.0759.131-.1627.122 0 0-.2561-.059-.4904-.059-.1609 0-.391.02-.5983.084-.2079.064-.3971.177-.5511.331-.1635.158-.2958.379-.3919.657-.0977.28-.1483.725-.1483 1.172v3.327c.0001.017-.0033.035-.01.051-.0067.017-.0166.032-.0292.044-.0125.013-.0274.023-.0438.03s-.034.01-.0518.01h-1.1722c-.0179 0-.0357-.003-.0523-.01-.0167-.006-.0319-.016-.0447-.029-.0128-.012-.0231-.027-.0301-.043-.0071-.017-.0109-.035-.0111-.053v-6.661c0-.075.0548-.135.1298-.135h1.1435c.0759 0 .1298.06.1298.135v.544c.1711-.229.4778-.431.755-.556.2781-.126.5891-.219 1.1511-.185.2925.018.6725.098.7492.127.015.006.0286.015.0401.026.0115.012.0206.025.0268.04s.0094.031.0093.047c0 .016-.0033.032-.0096.047zm-11.0139-3.087c.0312.013.1163.054.0826.155l-.343.938c-.0286.071-.0472.113-.193.069-.1928-.06-.3936-.091-.5957-.092-.177 0-.3371.023-.4787.07-.1416.045-.2701.124-.3741.231-.1385.133-.2456.296-.3135.477-.1643.471-.2275.975-.236 1.007h1.4275c.1206 0 .1585.055.1467.144l-.1669.928c-.0269.135-.1491.13-.1491.13h-1.4714l-1.0053 5.693c-.0864.511-.2178 1.013-.3927 1.5-.1575.412-.3202.713-.5814 1-.223.258-.5065.455-.825.575-.3093.114-.6851.172-1.0955.172-.1955 0-.4062-.004-.6547-.063-.1386-.032-.275-.072-.4087-.12-.0548-.019-.0995-.089-.0675-.178.0304-.089.295-.813.3304-.908.0455-.115.1618-.071.1618-.071.0792.034.1348.056.2401.077.107.021.2503.04.359.04.1947 0 .3716-.024.5258-.076.1854-.06.295-.169.4079-.314.118-.152.214-.359.3126-.636.0986-.281.1888-.651.2663-1.101l1.0011-5.589h-.9859c-.118 0-.1584-.056-.1449-.145l.1651-.929c.0261-.134.1517-.129.1517-.129h1.0121l.0547-.302c.1517-.897.4526-1.578.8975-2.026.4475-.451 1.0837-.678 1.891-.678.2309 0 .4348.015.6075.046.1694.032.2984.062.4416.105zm-19.9513 9.658c0 .075-.0523.135-.1281.135h-1.184c-.0758 0-.1272-.06-.1272-.135v-9.533c0-.073.0522-.134.1264-.134h1.1848c.0758 0 .1281.061.1281.135z" fill="#fff"/></g><g filter="url(#e)"><circle cx="442.021" cy="58.5246" fill="#fff" r="57.7807"/></g><path d="m458.97 41.5752h-33.898v33.8983h33.898z" fill="#fff"/><path d="m444.609 53.7786 1.553 2.2188 2.441-1.775v12.869h2.662v-16.8629h-2.219z" fill="#1e88e5"/><path d="m440.392 58.1316c.963-.8844 1.561-2.1109 1.561-3.4653 0-2.6919-2.362-4.8814-5.265-4.8814-2.468 0-4.579 1.5547-5.131 3.7797l2.553.6487c.254-1.0231 1.338-1.7658 2.578-1.7658 1.451 0 2.633.9954 2.633 2.2188s-1.182 2.2188-2.633 2.2188h-1.536v2.6625h1.536c1.666 0 3.071 1.1572 3.071 2.527 0 1.3929-1.335 2.527-2.976 2.527-1.482 0-2.748-.9399-2.949-2.1849l-2.599.4252c.404 2.5208 2.789 4.4222 5.547 4.4222 3.092 0 5.609-2.3282 5.609-5.1895 0-1.5763-.777-2.9908-1.999-3.943z" fill="#1e88e5"/><path d="m457.429 86.2595h-30.817l-1.54-6.1633 1.54-6.1633h30.817l1.541 6.1633z" fill="#fbc02d"/><path d="m463.592 75.4735 6.164-1.5408v-30.8167l-6.164-1.5408-6.163 1.5408v30.8167z" fill="#4caf50"/><path d="m457.429 43.1162 1.541-6.1633-1.541-6.1633h-38.521c-2.553 0-4.622 2.0693-4.622 4.6225v38.5208l6.163 1.5408 6.163-1.5408v-30.8167z" fill="#1e88e5"/><path d="m457.429 73.9329v12.3266l12.327-12.3266z" fill="#e53935"/><path d="m465.133 30.7896h-7.704v12.3266h12.327v-7.7041c0-2.5532-2.07-4.6225-4.623-4.6225z" fill="#1565c0"/><path d="m418.908 86.2595h7.704v-12.3266h-12.326v7.7041c0 2.5532 2.069 4.6225 4.622 4.6225z" fill="#1565c0"/><g filter="url(#f)"><circle cx="252.5" cy="240.501" fill="#fff" r="57.7807"/></g><path d="m261.749 223.905h-18.49v36.98h18.49z" fill="#fff"/><path d="m260.208 210.038h-15.408-10.786c-2.553 0-4.623 2.069-4.623 4.622v44.684l7.704 1.541 7.705-1.541v-33.898h15.408l1.541-7.704z" fill="#fbc02d"/><path d="m260.208 274.753h-15.408l-1.541-7.705 1.541-7.704h15.408l1.541 7.704z" fill="#4caf50"/><path d="m244.8 259.344v15.409h-10.786c-2.553 0-4.623-2.07-4.623-4.623v-10.786z" fill="#2e7d32"/><path d="m275.616 259.344-7.704 1.541-7.704-1.541v-33.898l7.704-1.541 7.704 1.541z" fill="#1e88e5"/><path d="m260.208 259.344h15.408v10.786c0 2.553-2.069 4.623-4.622 4.623h-10.786z" fill="#1565c0"/><path d="m275.616 225.446h-15.408v-15.408z" fill="#e53935"/><g filter="url(#g)"><circle cx="252.5" cy="58.5246" fill="#fff" r="57.7807"/></g><path d="m274.981 81.6378c-.824 1.4329-.459 2.5886-1.841 3.3852-1.382.7981-2.974 1.2373-4.63 1.2373h-32.019c-1.655 0-3.245-.4392-4.628-1.2358-1.384-.7966-1.019-1.9538-1.843-3.3867l11.818-13.8675h21.325z" fill="#1e88e5"/><path d="m257.836 32.3293c1.653-.0031 3.242-1.1032 4.624-.3051 1.382.7997 2.558 1.9569 3.385 3.3914l16.01 27.7288c.827 1.433 1.243 3.0309 1.245 4.6256.001 1.5979-1.953 3.1942-2.783 4.6241l-17.145-4.6302-10.669-18.4792z" fill="#fbc02d"/><path d="m283.101 67.7703c0 1.6024-.416 3.1895-1.248 4.6225l-5.655 9.7843c-.816 1.2018-1.864 2.1571-3.066 2.8505l-9.969-17.2573z" fill="#e53935"/><path d="m224.683 72.3943c-.829-1.4299-2.783-3.0262-2.783-4.6225.002-1.5963.416-3.1942 1.245-4.6287l16.01-27.7288c.827-1.433 2.003-2.5917 3.383-3.3899 1.382-.7997 2.972.3005 4.626.3036l5.33 16.963-10.666 18.4731z" fill="#4caf50"/><path d="m241.837 67.7703-9.969 17.2573c-1.202-.6934-2.25-1.6487-3.066-2.8505l-5.655-9.7843c-.832-1.433-1.248-3.0201-1.248-4.6225z" fill="#1565c0"/><path d="m262.454 32.023-9.953 17.2573-9.97-17.2573c1.202-.6934 2.558-1.1249 4.007-1.2173l11.294-.0154c1.664 0 3.251.4314 4.622 1.2327z" fill="#2e7d32"/><g filter="url(#h)"><circle cx="62.9791" cy="58.5246" fill="#fff" r="57.7807"/></g><g filter="url(#i)"><circle cx="442.021" cy="422.475" fill="#fff" r="57.7807"/></g><path d="m471.888 393.36h-32.903c0 8.178 6.657 14.835 14.835 14.835h6.086v5.8c0 8.179 6.657 14.835 14.835 14.835v-32.618c0-1.616-1.332-2.852-2.853-2.852z" fill="#0082ff"/><path d="m455.626 409.716h-32.903c0 8.178 6.657 14.835 14.835 14.835h6.086v5.896c0 8.178 6.657 14.835 14.835 14.835v-32.618c0-1.617-1.331-2.948-2.853-2.948z" fill="url(#k)"/><path d="m439.364 426.072h-32.903c0 8.178 6.657 14.835 14.835 14.835h5.991v5.801c0 8.178 6.657 14.835 14.835 14.835v-32.713c.095-1.426-1.236-2.758-2.758-2.758z" fill="url(#l)"/><path d="m44.49 46.1985v24.6533h24.6533v-24.6533z" fill="#fff"/><path d="m30.6225 47.7393v21.5717l7.7042 1.5408 7.7041-1.5408v-21.5717l-7.7041-1.5408z" fill="#1e88e5"/><path d="m83.0108 58.5252v21.5717c0 2.5531-2.0693 4.6225-4.6225 4.6225h-32.3575l-1.5408-7.7042 1.5408-7.7042h21.5717v-10.7858l7.7042-1.5408z" fill="#4caf50"/><path d="m83.0108 36.9536v21.5716h-15.4083v-10.7858h-21.5717l-1.5408-7.7042 1.5408-7.7041h32.3575c2.5532 0 4.6225 2.0693 4.6225 4.6225z" fill="#fbc02d"/><path d="m46.0308 69.311v15.4084h-10.7858c-2.5532 0-4.6225-2.0694-4.6225-4.6225v-10.7859z" fill="#1565c0"/><path d="m46.0308 32.3311v15.4083h-15.4083z" fill="#e53935"/><path d="m84.5516 58.5252-1.5408 13.02-15.4083-13.02 15.4083-13.0201z" fill="#2e7d32"/><path d="m96.8784 37.1229v42.8044c0 1.2943-1.5101 2.0185-2.5116 1.2018l-11.3559-9.5839v-26.0401l11.3559-9.584c1.0015-.8166 2.5116-.0925 2.5116 1.2018z" fill="#4caf50"/></svg>