<svg xmlns="http://www.w3.org/2000/svg" fill="none" viewBox="0 0 188 32" height="32" width="188">
<g clip-path="url(#clip0)">
<path fill="#253858" d="M35.1932 6.69824H37.7438V19.6443C37.7438 23.074 36.2431 25.441 32.7264 25.441C31.6864 25.4568 30.6515 25.2934 29.667 24.958V22.4783C30.5068 22.8039 31.4006 22.9678 32.3013 22.9613C34.4557 22.9613 35.1997 21.6732 35.1997 19.815L35.1932 6.69824Z"></path>
<path fill="#253858" d="M42.391 5.70328C42.6184 5.687 42.8468 5.71982 43.0604 5.79951C43.2741 5.87921 43.4682 6.00391 43.6294 6.16518C43.7907 6.32644 43.9154 6.52049 43.9951 6.73417C44.0748 6.94786 44.1076 7.17618 44.0913 7.40365C44.0913 7.85462 43.9122 8.28712 43.5933 8.606C43.2744 8.92489 42.8419 9.10403 42.391 9.10403C41.94 9.10403 41.5075 8.92489 41.1886 8.606C40.8697 8.28712 40.6906 7.85462 40.6906 7.40365C40.6743 7.17618 40.7071 6.94786 40.7868 6.73417C40.8665 6.52049 40.9912 6.32644 41.1525 6.16518C41.3137 6.00391 41.5078 5.87921 41.7215 5.79951C41.9352 5.71982 42.1635 5.687 42.391 5.70328ZM41.1447 11.1458H43.5825V25.3156H41.1447V11.1458Z"></path>
<path fill="#253858" d="M47.2632 11.1422H49.6431V13.6348C50.4643 11.9634 51.8974 10.7719 54.6605 10.9425V13.3224C51.5431 13.0004 49.6431 13.9472 49.6431 16.9486V25.3217H47.2632V11.1422Z"></path>
<path fill="#253858" d="M66.0802 22.7615C65.1721 24.6326 63.4717 25.5955 61.2915 25.5955C57.5236 25.5955 55.6235 22.3944 55.6235 18.2272C55.6235 14.2307 57.6073 10.8589 61.5749 10.8589C63.6424 10.8589 65.23 11.7928 66.0834 13.6349V11.1423H68.5213V25.3121H66.0834L66.0802 22.7615ZM61.942 23.3283C64.1254 23.3283 66.0802 21.9403 66.0802 18.794V17.6475C66.0802 14.5012 64.2961 13.1132 62.2157 13.1132C59.4655 13.1132 58.0485 14.9263 58.0485 18.2143C58.0614 21.6279 59.4204 23.3283 61.9452 23.3283H61.942Z"></path>
<path fill="#253858" d="M82.9424 25.5956C79.342 25.5956 77.6706 24.8871 76.2246 24.1496V21.5443C77.954 22.4525 80.6173 23.103 83.0809 23.103C85.8858 23.103 86.9454 21.9984 86.9454 20.3528C86.9454 18.7072 85.9245 17.8312 82.382 16.981C78.1955 15.9601 76.318 14.5142 76.318 11.4548C76.318 8.55642 78.5272 6.41162 82.8651 6.41162C85.5574 6.41162 87.2867 7.0557 88.562 7.77063V10.3212C86.7892 9.34431 84.7888 8.85535 82.7653 8.90422C80.3274 8.90422 78.8814 9.75441 78.8814 11.4548C78.8814 12.9845 80.073 13.7509 83.3578 14.5721C87.2964 15.564 89.5088 16.8264 89.5088 20.1821C89.4895 23.4122 87.5637 25.5956 82.9424 25.5956Z"></path>
<path fill="#253858" d="M91.6438 18.1982C91.6438 13.9473 94.1364 10.8589 98.3873 10.8589C102.638 10.8589 105.076 13.9473 105.076 18.1982C105.076 22.4491 102.609 25.6052 98.3873 25.6052C94.1654 25.6052 91.6438 22.4491 91.6438 18.1982ZM94.0237 18.1982C94.0237 20.8905 95.3569 23.3283 98.3873 23.3283C101.418 23.3283 102.696 20.8905 102.696 18.1982C102.696 15.5059 101.392 13.1389 98.3873 13.1389C95.3827 13.1389 94.0366 15.5059 94.0366 18.1982H94.0237Z"></path>
<path fill="#253858" d="M111.281 11.1423H114.937V13.3966H111.281V25.3121H108.902V13.3966H106.596V11.1423H108.892V9.59652C108.892 6.96222 110.367 5.1749 113.4 5.1749C113.956 5.1718 114.509 5.2477 115.043 5.40032V7.65461C114.539 7.55873 114.026 7.51128 113.513 7.51291C112.012 7.51291 111.259 8.39209 111.259 9.66737L111.281 11.1423Z"></path>
<path fill="#253858" d="M123.184 22.9323C123.699 22.9169 124.212 22.85 124.714 22.7326V25.0835C124.18 25.2363 123.627 25.3122 123.071 25.3089C120.038 25.3089 118.563 23.5248 118.563 20.8873V13.4095H116.257V11.1552H118.553V8.1377H120.933V11.1423H124.701V13.3966H120.933V20.8358C120.946 22.0821 121.683 22.9323 123.184 22.9323Z"></path>
<path fill="#253858" d="M125.396 11.1426H128.089L132.169 23.1579L136.304 11.1426H138.629L142.767 23.1579L146.851 11.1426H149.543L144.329 25.3124H141.212L138.774 18.4561L137.486 14.0925L136.198 18.4561L133.728 25.3124H130.61L125.396 11.1426Z"></path>
<path fill="#253858" d="M160.676 22.7615C159.768 24.6326 158.067 25.5955 155.887 25.5955C152.119 25.5955 150.219 22.3944 150.219 18.2272C150.219 14.2307 152.203 10.8589 156.171 10.8589C158.238 10.8589 159.826 11.7928 160.679 13.6349V11.1423H163.117V25.3121H160.679L160.676 22.7615ZM156.538 23.3283C158.721 23.3283 160.676 21.9403 160.676 18.794V17.6475C160.676 14.5012 158.892 13.1132 156.811 13.1132C154.074 13.1389 152.647 14.9391 152.647 18.2272C152.647 21.6279 154.016 23.3283 156.541 23.3283H156.538Z"></path>
<path fill="#253858" d="M166.798 11.1422H169.178V13.6348C169.999 11.9634 171.432 10.7719 174.195 10.9425V13.3224C171.078 13.0004 169.178 13.9472 169.178 16.9486V25.3217H166.798V11.1422Z"></path>
<path fill="#253858" d="M182.781 25.5954C177.48 25.5954 175.158 22.536 175.158 18.1884C175.158 13.9085 177.538 10.8491 181.847 10.8491C186.211 10.8491 187.966 13.8827 187.966 18.1884V19.293H177.625C177.967 21.7019 179.525 23.2606 182.868 23.2606C184.338 23.2592 185.797 22.9998 187.177 22.4941V24.7484C186.014 25.3764 184.227 25.5954 182.781 25.5954ZM177.596 17.2223H185.496C185.354 14.588 184.163 13.0841 181.728 13.0841C179.155 13.0712 177.851 14.749 177.596 17.2062V17.2223Z"></path>
<path fill="#2684FF" d="M23.3154 15.316L12.8169 4.81745L11.7992 3.7998L3.89634 11.7027L0.283034 15.316C0.102111 15.4971 0.000488281 15.7427 0.000488281 15.9987C0.000488281 16.2547 0.102111 16.5003 0.283034 16.6815L7.5032 23.9016L11.7992 28.1976L19.7021 20.2948L19.8245 20.1724L23.3154 16.6815C23.4963 16.5003 23.598 16.2547 23.598 15.9987C23.598 15.7427 23.4963 15.4971 23.3154 15.316V15.316ZM11.7992 19.6056L8.19237 15.9987L11.7992 12.3919L15.4061 15.9987L11.7992 19.6056Z"></path>
<path fill="url(#paint0_linear)" d="M11.7996 12.3917C10.6652 11.2571 10.0258 9.71985 10.0209 8.11546C10.0161 6.51108 10.6463 4.96996 11.7738 3.82861L3.88062 11.7186L8.17664 16.0147L11.7996 12.3917Z"></path>
<path fill="url(#paint1_linear)" d="M15.4163 15.9893L11.7998 19.6058C12.3642 20.1698 12.8119 20.8395 13.1173 21.5767C13.4228 22.3138 13.58 23.1039 13.58 23.9018C13.58 24.6997 13.4228 25.4898 13.1173 26.2269C12.8119 26.9641 12.3642 27.6338 11.7998 28.1978V28.1978L19.7124 20.2853L15.4163 15.9893Z"></path>
</g>
<defs>
<linearGradient gradientUnits="userSpaceOnUse" y2="13.7797" x2="6.1188" y1="8.74296" x1="11.1555" id="paint0_linear">
<stop stop-color="#0052CC" offset="0.18"></stop>
<stop stop-color="#2684FF" offset="1"></stop>
</linearGradient>
<linearGradient gradientUnits="userSpaceOnUse" y2="639.178" x2="492.607" y1="751.923" x1="318.649" id="paint1_linear">
<stop stop-color="#0052CC" offset="0.18"></stop>
<stop stop-color="#2684FF" offset="1"></stop>
</linearGradient>
<clipPath id="clip0">
<rect transform="translate(0 3.7998)" fill="white" height="24.3978" width="187.969"></rect>
</clipPath>
</defs>
</svg>