<svg viewBox="0 0 206 51" xmlns="http://www.w3.org/2000/svg" fill="none"><path fill="#000" d="M.81782 25.4897c0-6.7294.035338-13.4588-.017669-20.18689C.778695 2.51614 2.88005.734087 5.37392.744183c13.49918.05427 26.99958.053008 40.50008 0 2.4913-.010096 4.4778 2.001657 4.4425 4.398337-.0947 6.58048-.0366 13.16348-.024 19.74518 0 .4695-.1161.809-.4619 1.1536-7.9359 7.9145-15.8593 15.8403-23.7763 23.7737-.3054.3067-.6058.4304-1.0399.4291-6.6234-.0139-13.2481-.0454-19.87144.0101-2.19475.0202-4.335237-1.6874-4.330189-4.3251.013883-6.8127.005049-13.6267.005049-20.4394ZM25.552 50.0485v-.7572c0-6.5603-.0025-13.1219.0013-19.6821 0-2.3109 1.7997-4.1043 4.103-4.1043h20.3914C41.8543 17.3115 33.6899 9.14583 25.6113 1.06854 17.4583 9.22156 9.25733 17.4225 1.09169 25.5882 9.18287 33.6794 17.3283 41.8248 25.552 50.0485ZM113.264 39.8875v5.7841c-.972 0-1.91.0114-2.845-.0176-.101-.0026-.264-.2373-.277-.3749-.038-.3963-.014-.7976-.014-1.1977V30.8952c0-.5545.267-.8321.801-.833 2.84 0 5.678-.0265 8.517.0101 1.499.0202 2.962.2575 4.214 1.2066 2.81 2.1304 2.523 6.0201-.578 7.6987-.312.1691-.64.3066-1.038.4947 1.265 2.0282 2.522 4.045 3.867 6.2044-.82 0-1.529-.0758-2.215.0176-1.045.1439-1.627-.2675-2.11-1.1838-.762-1.4425-1.663-2.8132-2.528-4.2002-.113-.183-.356-.4026-.543-.4064-1.721-.0315-3.443-.0189-5.249-.0189l-.002.0025Zm.047-6.9401v4.1699c2.319 0 4.59.0277 6.858-.0114 1.185-.0202 2.268-1.021 2.313-2.0054.046-.9908-.82-2.0888-1.923-2.1266-2.406-.0833-4.818-.0253-7.247-.0253l-.001-.0012ZM191.253 20.9059h-3.008V5.36465c.187-.01388.35-.0366.513-.0366 2.817-.00252 5.634-.02777 8.45.0101 1.255.0164 2.515.12999 3.666.71938 1.606.82414 2.62 2.09757 2.737 3.92885.124 1.94232-.852 3.31042-2.48 4.26082-.321.1867-.671.3218-1.061.506 1.276 2.0433 2.543 4.074 3.869 6.1981-1.18 0-2.245.0215-3.307-.0202-.185-.0076-.416-.2373-.532-.424-1.016-1.6382-2.006-3.2915-3.019-4.931-.107-.1741-.313-.4051-.477-.4076-1.759-.0291-3.52-.019-5.351-.019v5.7564Zm.036-8.5317c2.396 0 4.765.0505 7.129-.0227 1.077-.0341 2.01-1.0109 2.068-1.8868.076-1.15606-.858-2.19727-2.13-2.24902-1.739-.07067-3.482-.06562-5.224-.08708-.603-.00757-1.208 0-1.843 0v4.2469-.0013ZM154.286 15.8197V5.33057c.984 0 1.902-.01009 2.82.01389.105.00252.23.17795.3.29911.046.07951.013.20572.013.31047 0 4.79336 0 9.58546-.001 14.37886 0 .1843-.022.3673-.038.6184-.868 0-1.706.0391-2.536-.0252-.232-.0177-.469-.3143-.656-.5251-2.831-3.2145-5.654-6.4353-8.475-9.6586-.053-.0594-.065-.154-.097-.2323-.058.0303-.117.0606-.175.0909v10.3162h-3.109V5.33057c.855 0 1.689-.02776 2.519.0202.198.01136.408.25746.566.43668 2.857 3.24606 5.708 6.49965 8.562 9.75085.064.0732.142.1325.306.2814h.001ZM204.033 31.8607c-.654.7396-1.263 1.4287-1.889 2.1367-2.169-1.5031-4.581-1.8603-7.096-1.6634-.625.0492-1.264.289-1.833.5692-.574.2814-.782.862-.69 1.5006.078.5427.464.8595.96.9604.96.1969 1.929.3534 2.901.4847 1.697.2297 3.443.2574 5.091.6764 3.491.886 4.696 4.7164 2.458 7.4905-.87 1.0791-2.087 1.6331-3.397 1.8855-4.352.8393-8.321-.0277-11.818-2.822-.082-.0656-.167-.1287-.288-.2208.64-.7346 1.243-1.4262 1.831-2.1014.905.5566 1.741 1.1611 2.652 1.6117 2.27 1.122 4.663 1.4223 7.137.8052.774-.1931 1.445-.5642 1.733-1.3921.325-.9377-.133-1.9524-1.241-2.2541-1.22-.3332-2.501-.448-3.757-.6512-1.525-.2461-3.074-.3862-4.569-.7547-1.556-.3824-2.646-1.3984-2.824-3.0795-.193-1.8287.415-3.3407 2.028-4.3617 1.128-.7144 2.391-1.0248 3.69-1.1081 2.953-.1894 5.746.4202 8.332 1.8931.181.1022.346.2309.589.395ZM178.464 40.5804V30.1077h3.037v15.5664c-.827 0-1.641.0202-2.453-.0164-.167-.0075-.355-.1956-.485-.342-2.724-3.0883-5.439-6.1816-8.157-9.2737-.22-.2499-.452-.4885-.803-.8671v10.4677h-3.025v-15.574c.81 0 1.642-.0127 2.474.0126.135.0038.291.1489.395.2675 2.126 2.4093 4.245 4.825 6.368 7.2368.839.9541 1.685 1.9032 2.65 2.9936l-.001.0013ZM88.5701 30.0963c.2398-.0113.4442-.0303.6487-.0303 4.0778-.0012 8.1555.0101 12.2332-.0138.563-.0038.738.1527.698.708-.048.6651-.011 1.3365-.011 2.0938H91.695v3.3066h6.2498v2.7501h-6.2271v4.002h10.9493v2.7274H88.5701V30.0963ZM169.594 18.1672h11.014v2.75h-14.033V5.3596h13.407v2.76774h-.748c-2.966 0-5.932.01767-8.896-.01388-.624-.00632-.801.18931-.755.78374.049.64871.038 1.305.002 1.955-.026.4732.135.6159.607.6083 1.746-.0253 3.491-.0101 5.238-.0076.124 0 .247.0177.423.0303v2.7021h-1.441c-1.41 0-2.819.0189-4.228-.0101-.485-.0101-.611.1578-.599.6184.029 1.1094.009 2.2188.009 3.3736ZM122.582 18.1609v2.7424h-14.099V5.36213h13.434v2.7488h-10.386v3.33567h6.275v2.7223h-6.281v3.9932h11.057v-.0012ZM66.7248 45.6767V30.1001c.164-.0164.3243-.0479.4834-.0479 2.9873-.0026 5.9734-.0177 8.9607.005 1.31.0101 2.5999.2158 3.7294.9352 1.7531 1.1182 2.5002 2.7526 2.1708 4.7921-.3067 1.9007-1.5561 3.0845-3.3167 3.6802-.7977.2701-1.6786.3787-2.5267.4014-2.0988.0555-4.2015.0176-6.3962.0176v1.0779c0 1.3882-.0114 2.7765.0063 4.1648.005.3925-.0883.573-.5238.5578-.838-.029-1.676-.0088-2.5885-.0088l.0013.0013Zm3.1388-8.5973c.1098.0151.1893.0341.2688.0341 2.1241.0025 4.2481.0176 6.371-.0114.4278-.0063.8771-.1249 1.2734-.2953 1.0273-.4392 1.5284-1.5208 1.1497-2.4686-.4909-1.2293-1.5788-1.488-2.7273-1.5095-1.9764-.0378-3.9528-.0113-5.9292-.0075-.1389 0-.2777.0353-.4064.053v4.2052ZM66.726 20.8996V5.33562c.958 0 1.9159-.01388 2.8713.02524.0845.00379.2208.35717.2221.54901.0164 1.91331.0101 3.82788.0101 5.74123v.7408c1.2419-1.0412 2.3765-1.9916 3.5098-2.94317 1.512-1.26965 3.0151-2.55066 4.546-3.79759.2323-.18931.5894-.29911.8936-.31047 1.0399-.03786 2.0812-.01388 3.1754.12495-2.2377 1.94612-4.4741 3.8935-6.766 5.88758 2.7702 3.1817 5.5102 6.3293 8.36 9.6006-1.04 0-1.9537-.0517-2.8574.0152-.8191.0606-1.3769-.1792-1.9234-.8343-1.8035-2.1594-3.6878-4.2519-5.5418-6.3697-.082-.0934-.1716-.1804-.3054-.3205-.9932.7875-1.984 1.5549-2.9457 2.355-.1224.1022-.1388.3774-.1401.573-.0113 1.4905-.0063 2.9823-.0063 4.5258h-3.1034l.0012.0013ZM149.783 45.6767c-1.394 0-2.591.0214-3.785-.0202-.218-.0076-.469-.236-.634-.4241-2.051-2.3336-4.09-4.6798-6.183-7.0828-.996.7863-1.986 1.5499-2.946 2.3475-.122.1022-.136.3786-.139.5743-.011 1.3453-.02 2.6907.003 4.0361.007.4341-.119.5957-.568.578-.833-.0315-1.669-.0088-2.538-.0088V30.0686c.931 0 1.869-.019 2.803.0252.106.005.279.3597.281.5541.022 1.8918.013 3.7837.013 5.6755v.7648c.811-.6777 1.512-1.2608 2.208-1.8476 1.944-1.637 3.881-3.2789 5.834-4.9045.176-.1476.444-.2537.671-.26 1.092-.0265 2.185-.0113 3.372.1174-2.227 1.9411-4.453 3.8809-6.749 5.8813 2.745 3.1539 5.49 6.3078 8.357 9.6019ZM102.736 18.1609v2.7538H89.5785V5.33057c.9377 0 1.8552-.00757 2.774.00379.4531.00505.3155.37231.3155.61211.0076 3.07063.0051 6.14123.0051 9.21063v3.0038h10.0629ZM130.191 5.35708h2.975V20.9071h-2.975V5.35708ZM158.195 45.6413h-2.972V30.1014h2.972v15.5399Z"></path></svg>