<svg viewBox="0 0 155 21" xmlns="http://www.w3.org/2000/svg" fill="none"><path fill="#000" d="m55 20.7-2-3.4c.9-1.8.9-3.9.9-6.6 0-3.4 0-5.9-2-8A7 7 0 0 0 46.5.5c-2.3 0-4 .9-5.4 2.2-2 2-2 4.5-2 8 0 3.4 0 6 2 8a7 7 0 0 0 5.4 2.2l1.7-.2h6.7Zm-11.1-4.4c-.7-.8-1-1.7-1-5.6 0-3.8.3-4.8 1-5.6.5-.6 1.5-1 2.5-1s2 .4 2.5 1c.7.8.9 1.8.9 5.6 0 3.9-.2 4.8-1 5.6-.4.6-1.4 1-2.4 1s-2-.4-2.5-1ZM100.5.7h3.8v20h-3.8V.7ZM7.6 20.9c-3 0-5.2-.6-7.2-2.6l2.5-2.5c1.2 1.2 3 1.7 4.7 1.7 2.3 0 3.6-.8 3.6-2.5 0-.7-.2-1.2-.6-1.7-.5-.4-.9-.5-1.8-.7l-2.4-.3c-1.7-.2-3-.8-3.8-1.7-1-1-1.5-2.3-1.5-4 0-3.5 2.6-6 7-6 2.7 0 4.7.7 6.4 2.3L12 5.3C10.8 4.1 9.2 4 8 4 5.9 4 4.8 5 4.8 6.5c0 .5.3 1 .7 1.4.4.4 1 .6 1.8.8l2.4.3c2 .3 3 .8 3.9 1.6 1 1 1.5 2.5 1.5 4.3 0 3.8-3.3 6-7.5 6ZM20.7 20.7V.7H34v3.5h-9.2v4.6h7.9v3.6h-8v4.9H34v3.4H20.7ZM67 20.9c-4 0-7.3-2.8-7.3-7V.6h4v13c0 2.3 1.3 3.7 3.4 3.7 2 0 3.4-1.4 3.4-3.7V.7h3.8v13.1c0 4.3-3.2 7.1-7.2 7.1ZM92.8 18.7a7 7 0 0 1-5.4 2.2c-2.3 0-4-.8-5.4-2.2-2-2-2-4.5-2-8 0-3.4 0-5.9 2-8A7 7 0 0 1 87.4.5c2.3 0 4 .9 5.4 2.2 2 2 2 4.5 2 8 0 3.4 0 6-2 8ZM90 5.1c-.5-.6-1.5-1-2.5-1s-2 .4-2.5 1c-.7.8-1 1.8-1 5.6 0 3.9.3 4.8 1 5.6.5.6 1.5 1 2.5 1s2-.4 2.5-1c.7-.8 1-1.7 1-5.6 0-3.8-.3-4.8-1-5.6ZM122.7 20.7l-1.1-3.5h-7l-1.3 3.5h-4l7.2-20h3l7.3 20h-4ZM118 6.6l-2.4 7.2h5L118 6.6Z"></path><path fill="#000" d="M149.6.7h5v5h-5v-5ZM137.2 16.4V.7h-2.5V19l2.5-2.5ZM139 18.2l-2.6 2.5h18.2v-2.5h-15.7ZM142.2 11.4V.7h-2.5V14l2.5-2.5ZM144 13.2l-2.6 2.5h13.2v-2.5h-10.7ZM147.1 6.5V.7h-2.4V9l2.4-2.4ZM148.9 8.2l-2.5 2.5h8.2V8.2h-5.7Z"></path></svg>