<svg xmlns="http://www.w3.org/2000/svg" fill="none" viewBox="0 0 330 83" height="83" width="330">
<path fill="#252434" d="M2.76828 82.77C9.29828 61.37 15.7783 40.13 22.3283 18.67C14.8683 19.9 7.59828 21.1 0.238281 22.32C0.288281 22.05 0.29828 21.83 0.35828 21.62C1.32828 18.51 2.33828 15.41 3.26828 12.28C3.78828 10.53 4.88828 9.64998 6.67828 9.36998C13.8783 8.22998 21.0783 7.01998 28.2783 5.84998C36.8583 4.45998 45.4283 3.07998 54.0083 1.68998C56.3983 1.29998 58.7883 0.89998 61.3183 0.47998C60.8783 1.87998 60.4683 3.15998 60.0783 4.45998C59.4783 6.48998 58.7783 8.45998 57.2883 10.06C55.0583 12.46 52.3583 13.85 49.0983 14.32C44.9583 14.91 40.8483 15.69 36.7183 16.35C36.0583 16.45 35.7883 16.73 35.5983 17.36C31.3683 31.31 27.1083 45.26 22.8583 59.2C21.3683 64.07 19.9183 68.96 18.3883 73.82C16.9983 78.24 13.9883 80.9 9.43828 81.74C7.28828 82.13 5.10828 82.41 2.76828 82.77Z"></path>
<path fill="#252434" d="M90.4993 1.37012C89.1793 5.58012 87.9193 9.62012 86.6493 13.6601C81.6893 29.4301 76.7093 45.2001 71.7693 60.9701C71.5693 61.5901 71.3093 61.8401 70.6393 61.9501C64.5493 62.9001 58.4693 63.9401 52.3693 64.8501C50.9493 65.0601 49.4393 65.0701 48.0293 64.8301C44.5493 64.2301 42.6293 61.6401 43.2593 58.0201C43.9393 54.1201 44.8993 50.2601 45.9693 46.4401C47.2893 41.7301 48.9693 37.1401 51.0193 32.6801C52.8393 28.7501 56.0193 26.6501 60.0793 25.7901C63.5293 25.0601 67.0293 24.5701 70.5193 24.0201C71.0893 23.9301 71.3193 23.7001 71.4793 23.1801C72.7093 19.1601 73.9293 15.1301 75.2293 11.1301C75.6693 9.78012 76.2093 8.45011 76.8593 7.19011C78.0893 4.79011 80.0393 3.21012 82.7293 2.70012C85.2393 2.23012 87.7793 1.84012 90.4993 1.37012ZM68.0893 33.9801C67.0093 34.1301 66.1093 34.3501 65.2093 34.3701C62.9893 34.4301 61.9793 35.7401 61.3793 37.6801C60.1593 41.6101 58.8593 45.5201 57.5993 49.4401C57.2193 50.6201 56.7893 51.8001 56.4593 52.9901C56.0793 54.3501 56.7893 55.1501 58.1793 54.9801C59.0893 54.8701 59.9893 54.6501 60.8893 54.5101C61.4893 54.4201 61.7893 54.0801 61.9593 53.5001C62.9293 50.3301 63.9393 47.1701 64.9293 44.0001C65.9693 40.7301 66.9993 37.4601 68.0893 33.9801Z"></path>
<path fill="#252434" d="M110.259 44.5101C109.369 47.4801 108.419 50.3401 106.629 52.8401C104.329 56.0401 101.009 57.5801 97.3194 58.4801C93.8494 59.3201 90.3094 59.8301 86.7394 59.7101C85.1094 59.6501 83.4194 59.3501 81.8794 58.8201C79.6894 58.0701 78.6094 56.2801 78.6094 54.0001C78.6094 52.5001 78.7194 50.9501 79.1294 49.5201C80.7694 43.8601 82.5194 38.2301 84.3094 32.6201C84.7494 31.2501 85.4994 29.9701 86.1094 28.6601C88.4494 23.6801 92.3594 20.7101 97.7094 19.5701C101.579 18.7501 105.469 18.0801 109.449 18.3001C110.539 18.3601 111.639 18.5401 112.679 18.8601C115.609 19.7601 116.999 22.0301 116.379 25.0501C115.989 26.9901 115.379 28.8901 114.809 30.7801C113.979 33.5301 113.069 36.2601 112.229 39.0101C112.059 39.5701 111.799 39.8301 111.219 39.9201C106.969 40.5701 102.729 41.2601 98.4794 41.9301C96.8694 42.1801 95.2594 42.4401 93.6494 42.6801C93.1594 42.7501 92.8794 42.9701 92.7394 43.4901C92.3394 44.9801 91.8194 46.4301 91.4394 47.9201C91.1194 49.1801 91.6894 49.8601 93.0094 49.8501C95.3394 49.8501 97.2994 49.2201 98.1294 46.7201C98.1894 46.5301 98.4894 46.3301 98.6994 46.2901C102.269 45.6801 105.829 45.0901 109.399 44.5101C109.659 44.4801 109.929 44.5101 110.259 44.5101ZM95.3694 34.8401C97.7094 34.4801 99.7894 34.1601 101.859 33.8201C102.039 33.7901 102.269 33.5801 102.329 33.4001C102.699 32.3001 103.079 31.2101 103.339 30.0901C103.609 28.9301 103.129 28.2501 101.929 28.2701C100.879 28.2901 99.7694 28.4201 98.8094 28.8201C98.0494 29.1401 97.2794 29.8201 96.9094 30.5501C96.2694 31.8201 95.9194 33.2501 95.3694 34.8401Z"></path>
<path fill="#252434" d="M47.0595 31.6899C46.1395 34.6199 45.2795 37.3899 44.4095 40.1499C41.6195 48.9899 38.8295 57.8299 36.0495 66.6699C35.8595 67.2699 35.6195 67.5699 34.9295 67.6799C30.9895 68.3299 27.0595 69.0399 23.0195 69.7499C23.1195 69.3699 23.1695 69.0899 23.2595 68.8199C26.7995 57.5799 30.3595 46.3399 33.8695 35.0899C34.1495 34.1799 34.5995 33.8799 35.5095 33.7299C39.3095 33.1099 43.0895 32.3999 47.0595 31.6899Z"></path>
<path fill="#252434" d="M49.4601 24.1401C49.4501 27.0101 47.0601 29.5601 43.9901 29.9901C42.1301 30.2501 40.3801 30.0001 38.8101 28.9001C36.4801 27.2701 35.8101 24.3701 37.2001 21.8901C39.2601 18.2001 44.9201 17.4101 47.9101 20.3901C48.9501 21.4201 49.5201 22.6501 49.4601 24.1401Z"></path>
<path fill="#252434" d="M244.388 32.8198C245.628 31.6698 246.718 30.5798 247.898 29.5998C249.798 28.0098 251.838 26.6298 254.338 26.1298C259.098 25.1698 261.688 28.8798 261.038 32.6598C260.588 35.2698 259.648 37.7998 258.908 40.3498C257.918 43.7698 256.898 47.1698 255.928 50.5898C255.758 51.1798 255.748 51.8298 255.788 52.4398C255.858 53.4798 256.558 54.0098 257.488 53.5898C258.578 53.0898 259.668 52.4898 260.558 51.6998C262.308 50.1498 263.538 48.3798 263.878 45.8498C264.558 40.7398 266.908 36.2198 269.778 31.9698C271.048 30.0898 272.438 28.3198 274.278 26.9498C276.348 25.4198 278.608 24.5798 281.208 25.2198C283.578 25.7998 285.328 27.8498 285.388 30.2798C285.418 31.6498 285.318 33.1098 284.848 34.3798C283.438 38.2498 281.098 41.4498 277.378 43.4498C275.688 44.3598 273.858 44.6698 271.948 44.4798C270.818 44.3698 270.508 44.5298 270.138 45.5798C269.408 47.6498 269.278 49.7798 269.798 51.8898C270.278 53.8398 271.348 54.8898 274.408 54.5598C278.658 54.0998 281.958 51.8198 284.978 48.9498C287.248 46.7898 288.218 44.0198 289.048 41.1598C290.018 37.7998 290.838 34.3998 291.758 31.0298C291.998 30.1498 292.278 29.2598 292.668 28.4398C293.228 27.2598 294.148 26.8398 295.368 27.0498C296.738 27.2898 297.388 27.9598 297.578 29.3298C297.598 29.4398 297.628 29.5498 297.938 29.8998C298.048 29.6698 298.118 29.3898 298.288 29.1998C300.488 26.7598 303.278 25.4098 306.508 25.0298C307.178 24.9498 307.928 25.1298 308.578 25.3498C309.418 25.6398 309.918 26.3098 309.958 27.2498C309.998 28.1898 309.638 28.9398 308.788 29.3898C308.238 29.6798 307.668 29.9398 307.088 30.1598C301.718 32.1598 298.048 35.8898 295.768 41.0998C293.778 45.6598 292.408 50.3998 291.308 55.2398C291.148 55.9298 290.918 56.6198 290.618 57.2498C289.748 59.0398 287.658 59.5698 286.148 58.2698C285.568 57.7698 285.348 56.8698 284.898 56.0398C284.828 56.0798 284.538 56.2498 284.248 56.4298C280.888 58.4798 277.298 59.8398 273.318 59.6898C271.688 59.6298 270.028 59.2198 268.458 58.7398C266.698 58.1998 265.798 57.2298 264.578 55.2298C264.328 55.4398 264.098 55.6498 263.868 55.8398C261.768 57.5998 259.548 59.0898 256.638 59.0598C253.228 59.0198 250.408 56.3298 250.168 52.9398C249.988 50.3898 250.598 47.9898 251.338 45.6098C252.568 41.6498 253.818 37.6898 255.058 33.7298C255.178 33.3398 255.288 32.9298 255.328 32.5198C255.418 31.6898 255.048 31.4198 254.268 31.6998C254.068 31.7698 253.878 31.8498 253.698 31.9598C248.398 35.2898 243.948 39.3998 241.728 45.4198C240.598 48.4698 239.838 51.6598 238.818 54.7498C238.518 55.6498 238.088 56.6198 237.428 57.2598C235.858 58.7998 233.968 58.3298 233.068 56.2598C232.588 56.6198 232.138 56.9898 231.658 57.3098C229.768 58.6098 227.718 59.2898 225.438 58.5898C223.838 58.0998 222.498 57.2098 221.858 55.4098C219.908 57.9798 217.598 59.7498 214.268 59.3598C211.048 58.9898 208.708 57.4198 207.778 53.9998C207.478 54.2298 207.228 54.4198 206.988 54.6098C203.938 57.1298 200.578 59.0098 196.618 59.6198C193.568 60.0898 190.638 59.6998 187.898 58.2098C186.558 57.4798 185.948 56.7498 184.788 54.5698C184.158 55.2398 183.598 55.9098 182.948 56.4898C180.778 58.4498 178.358 60.0298 175.328 59.8498C170.968 59.5898 168.678 57.4098 168.468 53.2198C168.258 49.1298 169.168 45.1998 170.258 41.3098C172.668 32.7498 175.098 24.1998 177.568 15.6698C177.898 14.5398 178.388 13.4398 178.978 12.4298C179.888 10.8898 180.898 10.4798 182.118 10.9398C183.638 11.5098 184.538 12.9298 184.188 14.5498C183.808 16.3398 183.278 18.1098 182.758 19.8698C180.518 27.4298 178.168 34.9498 176.038 42.5398C175.258 45.3198 174.938 48.2298 174.438 51.0898C174.358 51.5498 174.418 52.0398 174.458 52.5098C174.568 53.7898 175.418 54.5198 176.638 54.1598C177.638 53.8698 178.648 53.3798 179.438 52.7198C180.638 51.7198 181.668 50.5098 182.718 49.3398C183.808 48.1298 184.178 46.6198 184.528 45.0598C186.108 38.2298 189.228 32.2098 194.378 27.3698C195.778 26.0498 197.438 25.0798 199.398 24.8598C202.308 24.5398 204.318 25.8498 205.318 28.5998C206.128 30.8298 205.958 33.0498 205.118 35.2098C203.798 38.5798 201.538 41.2098 198.478 43.1198C196.688 44.2398 194.708 44.6698 192.598 44.4398C191.458 44.3198 190.968 44.6098 190.648 45.6698C190.108 47.4498 189.918 49.2798 190.328 51.1198C190.888 53.6698 192.828 54.9698 195.408 54.5598C199.728 53.8598 203.078 51.5298 205.858 48.2798C206.748 47.2398 207.378 46.0698 207.788 44.7298C209.368 39.5598 211.568 34.6798 215.098 30.4998C216.768 28.5198 218.678 26.8498 221.188 26.0098C223.538 25.2298 225.758 25.4798 227.768 26.9898C228.138 27.2698 228.388 27.3398 228.858 27.0998C229.988 26.5098 231.188 26.4998 232.218 27.3098C233.228 28.0998 233.318 29.2198 232.938 30.3898C230.908 36.4898 228.848 42.5798 226.858 48.6998C226.548 49.6398 226.408 50.6698 226.408 51.6598C226.398 53.0098 227.278 53.5698 228.498 52.9998C229.378 52.5998 230.238 52.0598 230.938 51.4098C232.998 49.4798 234.608 47.2398 235.358 44.4398C236.518 40.0898 237.728 35.7498 238.938 31.4098C239.178 30.5598 239.478 29.7098 239.848 28.9098C240.358 27.8198 241.248 27.1798 242.478 27.0298C244.118 26.8298 245.158 27.7698 245.008 29.3998C244.928 30.2798 244.678 31.1498 244.518 32.0198C244.458 32.2598 244.438 32.4798 244.388 32.8198ZM213.208 50.9398C213.238 51.1998 213.288 51.5598 213.328 51.9098C213.518 53.5698 214.558 54.1198 215.998 53.2398C216.648 52.8398 217.288 52.3398 217.738 51.7398C218.678 50.4898 219.668 49.2198 220.318 47.8098C221.468 45.3098 222.458 42.7398 223.388 40.1498C224.208 37.8698 224.838 35.5198 225.568 33.2098C225.848 32.3098 225.668 31.5398 224.898 31.0098C224.058 30.4298 223.118 30.2798 222.218 30.8298C221.598 31.2198 220.978 31.6798 220.508 32.2298C215.898 37.5798 213.628 43.8498 213.208 50.9398ZM192.818 39.2098C192.978 39.2798 193.008 39.2998 193.038 39.2998C196.268 38.6098 200.558 34.0098 200.958 30.8098C201.028 30.2098 200.768 29.9098 200.198 30.1398C199.598 30.3798 199.008 30.6798 198.488 31.0598C195.828 32.9898 194.228 35.7198 192.898 38.6398C192.818 38.7998 192.838 39.0098 192.818 39.2098ZM280.398 30.7098C280.408 30.1998 280.158 29.9298 279.638 30.1198C279.138 30.2998 278.648 30.5198 278.218 30.8198C275.368 32.7598 273.678 35.5898 272.308 38.6498C272.238 38.8098 272.298 39.0298 272.298 39.2298C272.488 39.2198 272.728 39.2698 272.868 39.1898C274.218 38.3598 275.678 37.6398 276.868 36.6198C278.648 35.0698 279.698 32.9998 280.398 30.7098Z"></path>
<path fill="#252434" d="M140.209 41.7099C140.269 44.7399 140.809 47.6399 142.399 50.2499C143.999 52.8799 146.159 54.8699 149.409 54.9499C152.849 55.0399 155.889 53.8499 158.259 51.2699C159.279 50.1499 160.149 48.8999 161.159 47.7699C161.759 47.0899 162.429 46.3999 163.209 45.9599C164.699 45.1399 165.969 45.9199 166.079 47.6099C166.229 49.7799 165.499 51.7099 164.289 53.4499C161.669 57.2099 157.989 59.4699 153.559 60.3799C148.349 61.4499 143.499 60.5599 139.359 57.0299C136.179 54.3199 134.539 50.7699 134.039 46.6699C133.229 40.0699 134.789 33.8799 137.449 27.9199C140.579 20.8899 145.069 14.9399 151.589 10.6699C154.229 8.93991 157.019 7.78991 160.259 7.91991C164.479 8.07991 167.569 10.6699 168.369 14.8099C169.119 18.6799 167.809 21.8999 165.079 24.5599C164.379 25.2499 163.329 25.6699 162.369 25.9799C161.129 26.3699 159.769 25.7299 159.209 24.7199C158.669 23.7499 158.879 22.3799 159.809 21.4499C160.349 20.9099 161.019 20.4899 161.609 19.9999C162.829 18.9899 162.969 17.6099 162.749 16.1899C162.559 14.9599 161.739 14.1099 160.539 13.9099C159.669 13.7699 158.699 13.8599 157.829 14.0699C155.349 14.6599 153.359 16.1299 151.619 17.9099C146.149 23.5099 142.379 30.0799 140.689 37.7599C140.399 39.0399 140.359 40.3899 140.209 41.7099Z"></path>
<path fill="#252434" d="M311.697 59.42C310.317 59.13 308.887 58.97 307.557 58.52C304.537 57.48 302.967 54.93 303.377 51.78C303.547 50.45 303.987 49.13 304.437 47.85C304.767 46.93 305.497 46.36 306.557 46.37C307.627 46.39 308.247 47.02 308.247 48.1C308.257 51.99 309.917 53.43 313.767 52.88C316.637 52.47 318.717 50.61 319.437 47.81C319.847 46.2 319.457 44.91 318.077 43.99C317.147 43.37 316.097 42.93 315.067 42.47C313.687 41.85 312.237 41.38 310.917 40.66C307.587 38.84 306.857 35.4 309.037 32.28C310.127 30.72 311.647 29.68 313.307 28.86C316.037 27.52 318.907 26.59 321.947 26.26C322.447 26.21 322.957 26.2 323.457 26.24C324.507 26.32 325.507 26.6 325.847 27.74C326.247 29.08 325.847 30.34 324.697 31.03C323.957 31.48 323.067 31.79 322.217 31.89C319.817 32.18 317.597 32.93 315.497 34.08C314.287 34.75 314.257 35.51 315.487 36.13C316.807 36.8 318.227 37.25 319.577 37.87C322.247 39.09 324.387 40.86 325.117 43.86C325.697 46.21 325.347 48.53 324.517 50.76C322.717 55.59 319.067 58.13 314.117 59.03C313.707 59.1 313.297 59.16 312.877 59.19C312.497 59.22 312.107 59.2 311.717 59.2C311.717 59.28 311.707 59.35 311.697 59.42Z"></path>
</svg>
