<svg width="388" height="142" viewBox="0 0 388 142" fill="none" xmlns="http://www.w3.org/2000/svg">
<g clip-path="url(#clip0)">
<rect width="388" height="142" fill="white"/>
<path d="M-0.0620117 139.157V0.449799H25.4039V139.157H-0.0620117Z" fill="#222222"/>
<path d="M244.192 44.8967H268.511V56.3961C273.679 47.2011 285.748 42.2157 296.085 42.2157C308.92 42.2157 319.257 47.7743 324.043 57.9248C331.506 46.4254 341.472 42.2157 353.918 42.2157C371.342 42.2157 388 52.754 388 78.0404V139.157H363.299V83.2168C363.299 73.0607 358.316 65.4 346.635 65.4C335.718 65.4 329.206 73.8307 329.206 83.9868V139.163H303.937V83.2168C303.937 73.0607 298.768 65.4 287.273 65.4C276.165 65.4 269.652 73.6396 269.652 83.9868V139.163H244.192V44.8967Z" fill="#222222"/>
<path d="M82.9549 141.888C54.2664 141.888 33.491 120.609 33.491 92.029C33.491 63.9043 54.1989 42.1195 82.9549 42.1195C111.851 42.1195 132.419 64.1066 132.419 92.029C132.419 120.401 111.632 141.888 82.9549 141.888ZM82.9549 65.1914C68.1579 65.1914 56.1224 77.2303 56.1224 92.0346C56.1224 106.839 68.1579 118.878 82.9549 118.878C97.7519 118.878 109.782 106.839 109.782 92.0346C109.782 77.2303 97.7519 65.1914 82.9549 65.1914Z" fill="#222222"/>
<path d="M186.816 141.888C158.127 141.888 137.352 120.609 137.352 92.029C137.352 63.9043 158.06 42.1195 186.816 42.1195C215.712 42.1195 236.28 64.1066 236.28 92.029C236.28 120.401 215.482 141.888 186.816 141.888ZM186.816 64.871C171.85 64.871 159.674 77.0561 159.674 92.0233C159.674 106.991 171.85 119.176 186.816 119.176C201.781 119.176 213.958 106.991 213.958 92.0233C213.952 77.0561 201.776 64.871 186.816 64.871Z" fill="#222222"/>
</g>
<defs>
<clipPath id="clip0">
<rect width="388" height="142" fill="white"/>
</clipPath>
</defs>
</svg>
